<svg width="24" height="24" viewBox="0 0 24 24" fill="none" xmlns="http://www.w3.org/2000/svg">
<path d="M19.6707 14.0356C20.0076 13.7949 20.4768 13.8727 20.7176 14.2094C20.9584 14.5464 20.8798 15.0155 20.5428 15.2563L12.5486 20.9662C12.2046 21.2118 11.7424 21.2118 11.3983 20.9662L3.40412 15.2563C3.06717 15.0155 2.98957 14.5474 3.23029 14.2104C3.47106 13.8734 3.93918 13.7949 4.27619 14.0356L11.9744 19.5336L19.6707 14.0356Z" fill="black"/>
<path d="M11.3983 2.56583C11.7425 2.32005 12.2054 2.31999 12.5496 2.56583L20.2703 8.08048L20.367 8.15958C20.8202 8.57664 20.7874 9.3217 20.2694 9.69181L12.5486 15.2065C12.2046 15.452 11.7423 15.452 11.3983 15.2065L3.67755 9.69181C3.12502 9.29698 3.12506 8.47533 3.67755 8.08048L11.3983 2.56583Z" fill="black"/>
</svg>
