<svg width="25" height="25" viewBox="0 0 25 25" fill="none" xmlns="http://www.w3.org/2000/svg">
<path fill-rule="evenodd" clip-rule="evenodd" d="M10.5 11.25C11.1904 11.25 11.75 11.8096 11.75 12.5V20.5C11.75 21.1904 11.1904 21.75 10.5 21.75H4.5C3.80964 21.75 3.25 21.1904 3.25 20.5V12.5C3.25 11.8096 3.80964 11.25 4.5 11.25H10.5ZM4.75 20.25H10.25V12.75H4.75V20.25Z" fill="black"/>
<path fill-rule="evenodd" clip-rule="evenodd" d="M20.5 15.25C21.1904 15.25 21.75 15.8096 21.75 16.5V20.5C21.75 21.1904 21.1904 21.75 20.5 21.75H14.5C13.8096 21.75 13.25 21.1904 13.25 20.5V16.5C13.25 15.8096 13.8096 15.25 14.5 15.25H20.5ZM14.75 20.25H20.25V16.75H14.75V20.25Z" fill="black"/>
<path fill-rule="evenodd" clip-rule="evenodd" d="M20.5 3.25C21.1904 3.25 21.75 3.80964 21.75 4.5V12.5C21.75 13.1904 21.1904 13.75 20.5 13.75H14.5C13.8096 13.75 13.25 13.1904 13.25 12.5V4.5C13.25 3.80964 13.8096 3.25 14.5 3.25H20.5ZM14.75 12.25H20.25V4.75H14.75V12.25Z" fill="black"/>
<path fill-rule="evenodd" clip-rule="evenodd" d="M10.5 3.25C11.1904 3.25 11.75 3.80964 11.75 4.5V8.5C11.75 9.19036 11.1904 9.75 10.5 9.75H4.5C3.80964 9.75 3.25 9.19036 3.25 8.5V4.5C3.25 3.80964 3.80964 3.25 4.5 3.25H10.5ZM4.75 8.25H10.25V4.75H4.75V8.25Z" fill="black"/>
</svg>
