<svg width="24" height="24" viewBox="0 0 24 24" fill="none" xmlns="http://www.w3.org/2000/svg">
<path fill-rule="evenodd" clip-rule="evenodd" d="M17.2803 3.08984C18.7546 3.0901 19.9501 4.28541 19.9502 5.75977V20.1729C19.95 21.1802 18.8046 21.7598 17.9922 21.1641L11.999 16.7686L6.00684 21.1641C5.19446 21.7597 4.04999 21.1802 4.0498 20.1729V5.75977C4.04991 4.28534 5.24531 3.08998 6.71973 3.08984H17.2803ZM6.71973 4.58984C6.07374 4.58998 5.54991 5.11377 5.5498 5.75977V19.6396L11.2725 15.4434L11.3555 15.3877C11.7503 15.1445 12.2497 15.1445 12.6445 15.3877L12.7275 15.4434L18.4502 19.6396V5.75977C18.4501 5.11384 17.9262 4.5901 17.2803 4.58984H6.71973Z" fill="black"/>
</svg>
