<svg width="24" height="24" viewBox="0 0 24 24" fill="none" xmlns="http://www.w3.org/2000/svg">
<g clip-path="url(#clip0_1768_6115)">
<rect x="2" y="5" width="20" height="14" rx="3" fill="#F93939"/>
<path d="M20.0952 5H3.90476C2.85279 5 2 5.83574 2 6.86667V17.1333C2 18.1643 2.85279 19 3.90476 19H20.0952C21.1472 19 22 18.1643 22 17.1333V6.86667C22 5.83574 21.1472 5 20.0952 5Z" fill="#F93939"/>
<path fill-rule="evenodd" clip-rule="evenodd" d="M12 8.73332L10.5714 7.79999L9.61906 8.73332H10.5714L9.61906 9.66665L7.71429 8.73332V13.4L10.5714 12.4667L9.61906 14.3333H8.66668L9.61906 15.2667L10.5714 14.3333L12 16.2V8.73332ZM13.4286 7.79999L14.381 8.73332H13.4286L14.381 9.66665L16.2857 8.73332V13.4L13.4286 12.4667L14.381 14.3333H15.3333L14.381 15.2667L13.4286 14.3333L12 16.2V8.73332L13.4286 7.79999Z" fill="#151515"/>
</g>
<defs>
<clipPath id="clip0_1768_6115">
<rect x="2" y="5" width="20" height="14" rx="3" fill="white"/>
</clipPath>
</defs>
</svg>
