<svg width="32" height="32" viewBox="0 0 32 32" fill="none" xmlns="http://www.w3.org/2000/svg">
<path opacity="0.2" d="M22 23H8V27H22V23Z" fill="#008194"/>
<path d="M15.5864 2.3178L16.8067 4.72118H18.8864C19.0007 4.71888 19.113 4.751 19.2088 4.81334C19.3046 4.87569 19.3794 4.9654 19.4236 5.07081C19.4678 5.17623 19.4792 5.29249 19.4565 5.4045C19.4338 5.51651 19.3779 5.6191 19.2961 5.69895L17.3836 7.57531L18.4415 10.0051C18.488 10.1164 18.4984 10.2396 18.4712 10.3572C18.4439 10.4747 18.3804 10.5808 18.2897 10.6603C18.1989 10.7398 18.0854 10.7888 17.9653 10.8004C17.8452 10.812 17.7245 10.7855 17.6202 10.7247L15.0633 9.28446L12.5064 10.7247C12.4021 10.7851 12.2816 10.8113 12.1617 10.7996C12.0417 10.7878 11.9285 10.7388 11.838 10.6593C11.7474 10.5799 11.684 10.474 11.6568 10.3566C11.6295 10.2393 11.6398 10.1163 11.686 10.0051L12.744 7.57531L10.8344 5.69602C10.7526 5.61611 10.6967 5.51343 10.6739 5.40132C10.6512 5.28922 10.6628 5.17287 10.7071 5.06741C10.7514 4.96195 10.8264 4.87226 10.9223 4.80999C11.0183 4.74771 11.1307 4.71575 11.2451 4.71824H13.3238L14.5451 2.31486C14.5948 2.21966 14.6698 2.13995 14.7618 2.08442C14.8537 2.0289 14.9592 1.9997 15.0666 2C15.1741 2.0003 15.2793 2.0301 15.371 2.08614C15.4627 2.14218 15.5372 2.22231 15.5864 2.3178Z" fill="#008194"/>
<path fill-rule="evenodd" clip-rule="evenodd" d="M3.76264 4.76264C4.09088 4.4344 4.53607 4.25 5.00027 4.25H7.33333C7.74755 4.25 8.08333 4.58579 8.08333 5C8.08333 5.41421 7.74755 5.75 7.33333 5.75H5.00027C4.93389 5.75 4.87024 5.77637 4.8233 5.8233C4.77637 5.87024 4.75 5.93389 4.75 6.00027C4.75 8.71874 5.82991 11.3259 7.75216 13.2481C9.6744 15.1704 12.2815 16.2503 15 16.2503C17.7185 16.2503 20.3256 15.1704 22.2478 13.2481C24.1701 11.3259 25.25 8.71874 25.25 6.00027C25.25 5.93389 25.2236 5.87024 25.1767 5.8233C25.1298 5.77637 25.0661 5.75 24.9997 5.75H22.6667C22.2525 5.75 21.9167 5.41421 21.9167 5C21.9167 4.58579 22.2525 4.25 22.6667 4.25H24.9997C25.4639 4.25 25.9091 4.4344 26.2374 4.76264C26.5656 5.09088 26.75 5.53606 26.75 6.00027C26.75 9.11656 25.5121 12.1052 23.3085 14.3088C21.813 15.8043 19.9559 16.855 17.9426 17.3759L19.1745 22H21C22.1046 22 23 22.8954 23 24V26C23 27.1046 22.1046 28 21 28H9C7.89543 28 7 27.1046 7 26V24C7 22.8954 7.89543 22 9 22H10.6196L11.9852 17.357C9.99979 16.8298 8.16913 15.7864 6.69149 14.3088C4.48794 12.1052 3.25 9.11656 3.25 6.00027C3.25 5.53607 3.4344 5.09088 3.76264 4.76264ZM13.4705 17.6503L12.2464 22H17.5322L16.4543 17.66C15.9743 17.7198 15.4887 17.7503 15 17.7503C14.4857 17.7503 13.9749 17.7165 13.4705 17.6503ZM21.5 24C21.5 23.7239 21.2761 23.5 21 23.5H9C8.72386 23.5 8.5 23.7239 8.5 24V26C8.5 26.2761 8.72386 26.5 9 26.5H21C21.2761 26.5 21.5 26.2761 21.5 26V24Z" fill="#008194"/>
</svg>
