<svg width="24" height="24" viewBox="0 0 24 24" fill="none" xmlns="http://www.w3.org/2000/svg">
<g clip-path="url(#clip0_1772_6406)">
<rect x="2" y="5" width="20" height="14" rx="3" fill="#1A47B8"/>
<path d="M2 5H4.12759L12.062 10.1794L20.0953 5.00002H22.0001V7.33335C22.0001 7.33335 18.7144 9.39768 14.7462 11.9316L22 16.6667V19L19.8609 19L11.8656 13.7775C8.94257 15.6578 5.98477 17.585 3.90485 19H2.00009V16.6667L9.19097 12.0305L2 7.33333V5Z" fill="white"/>
<path d="M12.0205 11.0976L2.70962 5H2V6.35385L10.6296 12.0063L2 17.644V19H2.70962L12.0081 12.9092L21.307 19H22V17.6331L13.3972 11.9992L22 6.36408V5H21.3541L12.0205 11.0976Z" fill="#F93939"/>
<path fill-rule="evenodd" clip-rule="evenodd" d="M9.27341 5H14.7432V9.31836H22V14.6788H14.7432V19H9.27341V14.6788H2V9.31836H9.27341V5Z" fill="white"/>
<path fill-rule="evenodd" clip-rule="evenodd" d="M10.4211 5H13.5789V10.3846H22V13.6154H13.5789V19H10.4211V13.6154H2V10.3846H10.4211V5Z" fill="#F93939"/>
</g>
<g clip-path="url(#clip1_1772_6406)">
<mask id="mask0_1772_6406" style="mask-type:alpha" maskUnits="userSpaceOnUse" x="2" y="5" width="21" height="14">
<path d="M2 5H23L2 19V5Z" fill="#D9D9D9"/>
</mask>
<g mask="url(#mask0_1772_6406)">
<path d="M2 8C2 6.34315 3.34315 5 5 5H22V19H2V8Z" fill="white"/>
<path fill-rule="evenodd" clip-rule="evenodd" d="M2 5H10.5714V11.5333H2V5Z" fill="#1A47B8"/>
<path fill-rule="evenodd" clip-rule="evenodd" d="M10.5714 5V5.93333H22V5H10.5714ZM10.5714 6.86667V7.8H22V6.86667H10.5714ZM10.5714 8.73333V9.66667H22V8.73333H10.5714ZM10.5714 10.6V11.5333H22V10.6H10.5714ZM2 12.4667V13.4H22V12.4667H2ZM2 14.3333V15.2667H22V14.3333H2ZM2 16.2V17.1333H22V16.2H2ZM2 18.0667V19H22V18.0667H2Z" fill="#F93939"/>
<path fill-rule="evenodd" clip-rule="evenodd" d="M2.95238 5.93335V6.86668H3.90476V5.93335H2.95238ZM4.85714 5.93335V6.86668H5.80952V5.93335H4.85714ZM6.7619 5.93335V6.86668H7.71428V5.93335H6.7619ZM8.66666 5.93335V6.86668H9.61904V5.93335H8.66666ZM7.71428 6.86668V7.80002H8.66666V6.86668H7.71428ZM5.80952 6.86668V7.80002H6.7619V6.86668H5.80952ZM3.90476 6.86668V7.80002H4.85714V6.86668H3.90476ZM2.95238 7.80002V8.73335H3.90476V7.80002H2.95238ZM4.85714 7.80002V8.73335H5.80952V7.80002H4.85714ZM6.7619 7.80002V8.73335H7.71428V7.80002H6.7619ZM8.66666 7.80002V8.73335H9.61904V7.80002H8.66666ZM2.95238 9.66668V10.6H3.90476V9.66668H2.95238ZM4.85714 9.66668V10.6H5.80952V9.66668H4.85714ZM6.7619 9.66668V10.6H7.71428V9.66668H6.7619ZM8.66666 9.66668V10.6H9.61904V9.66668H8.66666ZM7.71428 8.73335V9.66668H8.66666V8.73335H7.71428ZM5.80952 8.73335V9.66668H6.7619V8.73335H5.80952ZM3.90476 8.73335V9.66668H4.85714V8.73335H3.90476Z" fill="white"/>
</g>
</g>
<defs>
<clipPath id="clip0_1772_6406">
<rect x="2" y="5" width="20" height="14" rx="3" fill="white"/>
</clipPath>
<clipPath id="clip1_1772_6406">
<rect x="2" y="5" width="20" height="14" rx="3" fill="white"/>
</clipPath>
</defs>
</svg>
