<svg width="25" height="25" viewBox="0 0 25 25" fill="none" xmlns="http://www.w3.org/2000/svg">
<path d="M10.5 3.25C10.9142 3.25 11.25 3.58579 11.25 4C11.25 4.41421 10.9142 4.75 10.5 4.75H5C4.86193 4.75 4.75 4.86193 4.75 5V20C4.75 20.1381 4.86193 20.25 5 20.25H10.5C10.9142 20.25 11.25 20.5858 11.25 21C11.25 21.4142 10.9142 21.75 10.5 21.75H5C4.0335 21.75 3.25 20.9665 3.25 20V5C3.25 4.0335 4.0335 3.25 5 3.25H10.5Z" fill="black"/>
<path d="M14.4424 7.49805C14.7195 7.19022 15.1941 7.1653 15.502 7.44238L20.0889 11.5713C20.6403 12.0678 20.6403 12.9322 20.0889 13.4287L15.502 17.5576C15.1941 17.8347 14.7195 17.8098 14.4424 17.502C14.1653 17.1941 14.1902 16.7195 14.498 16.4424L18.0449 13.25H9C8.58579 13.25 8.25 12.9142 8.25 12.5C8.25 12.0858 8.58579 11.75 9 11.75H18.0449L14.498 8.55762C14.1902 8.28052 14.1653 7.80591 14.4424 7.49805Z" fill="black"/>
</svg>
