<svg width="24" height="24" viewBox="0 0 24 24" fill="none" xmlns="http://www.w3.org/2000/svg">
<path d="M11.04 6.79004C13.3872 6.79006 15.29 8.69284 15.29 11.04C15.29 13.3872 13.3872 15.29 11.04 15.29C8.69283 15.29 6.79004 13.3872 6.79004 11.04C6.79004 8.69283 8.69283 6.79004 11.04 6.79004Z" fill="black"/>
<path fill-rule="evenodd" clip-rule="evenodd" d="M11.04 3.08984C15.4306 3.08995 18.9902 6.6495 18.9902 11.04C18.9902 12.9652 18.3048 14.7299 17.166 16.1055L20.6904 19.6299C20.983 19.9228 20.9832 20.3976 20.6904 20.6904C20.3976 20.9832 19.9228 20.983 19.6299 20.6904L16.1055 17.166C14.7299 18.3048 12.9652 18.9902 11.04 18.9902C6.64951 18.9902 3.08995 15.4306 3.08984 11.04C3.08991 6.64948 6.64949 3.08993 11.04 3.08984ZM11.04 4.58984C7.47791 4.58993 4.58991 7.47791 4.58984 11.04C4.58995 14.6021 7.47794 17.4902 11.04 17.4902C14.6021 17.4901 17.4901 14.6021 17.4902 11.04C17.4902 7.47792 14.6021 4.58995 11.04 4.58984Z" fill="black"/>
</svg>
