<svg width="24" height="24" viewBox="0 0 24 24" fill="none" xmlns="http://www.w3.org/2000/svg">
<g clip-path="url(#clip0_1768_6102)">
<rect x="2" y="5" width="20" height="14" rx="3" fill="#AF010D"/>
<path fill-rule="evenodd" clip-rule="evenodd" d="M2 5L11.5238 11.5333H12.4762L5.80952 5H2ZM2 19L11.5238 12.4667H12.4762L5.80952 19H2Z" fill="#FFDA2C"/>
<path fill-rule="evenodd" clip-rule="evenodd" d="M12.4762 11.5333H11.5238L18.1905 5H22L12.4762 11.5333ZM12.4762 12.4667H11.5238L18.1905 19H22L12.4762 12.4667ZM9.61905 11.5333L2 10.6V13.4L9.61905 12.4667V11.5333ZM14.381 11.5333L22 10.6V13.4L14.381 12.4667V11.5333ZM11.5238 9.66667L10.5714 5H13.4286L12.4762 9.66667H11.5238ZM11.5238 14.3333L10.5714 19H13.4286L12.4762 14.3333" fill="#FFDA2C"/>
<path d="M12 14.3333C13.3149 14.3333 14.3809 13.2887 14.3809 12C14.3809 10.7113 13.3149 9.66666 12 9.66666C10.685 9.66666 9.61902 10.7113 9.61902 12C9.61902 13.2887 10.685 14.3333 12 14.3333Z" fill="#AF010D"/>
<path d="M12 13.4C12.789 13.4 13.4286 12.7732 13.4286 12C13.4286 11.2268 12.789 10.6 12 10.6C11.211 10.6 10.5714 11.2268 10.5714 12C10.5714 12.7732 11.211 13.4 12 13.4Z" fill="#FFDA2C"/>
</g>
<defs>
<clipPath id="clip0_1768_6102">
<rect x="2" y="5" width="20" height="14" rx="3" fill="white"/>
</clipPath>
</defs>
</svg>
