<svg width="16" height="16" viewBox="0 0 16 16" fill="none" xmlns="http://www.w3.org/2000/svg">
<path d="M12.2229 4.95679C12.2228 4.09977 11.5519 3.4353 10.761 3.4353C9.97009 3.43539 9.29916 4.09982 9.29904 4.95679C9.29904 5.39178 9.4734 5.84487 9.76193 6.1853C10.0497 6.52484 10.4088 6.70771 10.761 6.70776C11.1131 6.70776 11.4722 6.5248 11.76 6.1853C12.0485 5.84487 12.2229 5.39178 12.2229 4.95679ZM13.4729 4.95679C13.4729 5.70719 13.1807 6.44215 12.7141 6.99292C12.2465 7.54458 11.5614 7.95776 10.761 7.95776C9.96061 7.95771 9.27633 7.54454 8.80881 6.99292C8.34203 6.44212 8.04904 5.70733 8.04904 4.95679C8.04916 3.44288 9.24679 2.18539 10.761 2.1853C12.2752 2.1853 13.4728 3.44283 13.4729 4.95679Z" fill="black"/>
<path d="M5.96194 6.01807C5.96192 5.33421 5.43773 4.82667 4.84769 4.82666C4.25763 4.82666 3.73345 5.33421 3.73343 6.01807C3.73343 6.36455 3.87108 6.727 4.09769 6.99854C4.32398 7.26964 4.59531 7.40283 4.84769 7.40283C5.10005 7.40282 5.3714 7.26963 5.59769 6.99854C5.82428 6.727 5.96194 6.36454 5.96194 6.01807ZM7.21194 6.01807C7.21194 6.67455 6.96026 7.31677 6.55765 7.79932C6.15447 8.28234 5.55585 8.65282 4.84769 8.65283C4.13951 8.65283 3.54091 8.28234 3.13773 7.79932C2.7351 7.31677 2.48343 6.67456 2.48343 6.01807C2.48345 4.69557 3.51666 3.57666 4.84769 3.57666C6.1787 3.57667 7.21192 4.69558 7.21194 6.01807Z" fill="black"/>
<path d="M10.7608 8.44653C12.9057 8.44653 14.1377 9.44088 14.8067 10.47C15.1321 10.9706 15.3184 11.4672 15.4229 11.8362C15.4754 12.0214 15.5083 12.1776 15.5284 12.2903C15.5384 12.3466 15.5453 12.3927 15.5499 12.426C15.5521 12.4427 15.5535 12.4567 15.5547 12.467C15.5553 12.4721 15.5563 12.4763 15.5567 12.4797V12.6145C15.527 12.9036 15.2976 13.1421 14.9971 13.1721C14.6969 13.202 14.4254 13.0138 14.3389 12.7366L14.3135 12.6125C14.3132 12.6096 14.3127 12.604 14.3116 12.5959C14.3092 12.5784 14.3048 12.5487 14.2979 12.51C14.2841 12.4325 14.2595 12.3173 14.2198 12.177C14.1395 11.8938 13.9987 11.5206 13.7589 11.1516C13.2973 10.4416 12.442 9.69653 10.7608 9.69653C9.07979 9.69663 8.22425 10.4416 7.76276 11.1516C7.52307 11.5205 7.38301 11.8939 7.3028 12.177C7.26303 12.3174 7.23852 12.4325 7.22467 12.51C7.21777 12.5487 7.2134 12.5784 7.211 12.5959C7.20983 12.6045 7.20938 12.6107 7.20905 12.6135C7.17453 12.9568 6.86783 13.2065 6.52448 13.1721C6.22411 13.1419 5.99458 12.9036 5.9649 12.6145V12.4866L5.96588 12.4846C5.96602 12.4833 5.96569 12.4815 5.96588 12.4797C5.96626 12.4763 5.96724 12.4721 5.96783 12.467C5.96905 12.4567 5.97044 12.4427 5.97272 12.426C5.97728 12.3927 5.98415 12.3466 5.9942 12.2903C6.01434 12.1776 6.04718 12.0214 6.09967 11.8362C6.20422 11.4672 6.38949 10.9706 6.7149 10.47C7.38385 9.44083 8.61593 8.44663 10.7608 8.44653Z" fill="black"/>
<path d="M4.84753 9.14282C5.47308 9.14282 6.01571 9.2241 6.48523 9.36255C6.2478 9.73417 6.05256 10.1202 5.89343 10.4993C5.59155 10.4318 5.2451 10.3928 4.84753 10.3928C3.28898 10.3929 2.51866 10.9972 2.11999 11.5325C1.91102 11.8132 1.7895 12.0965 1.72058 12.3088C1.68649 12.4139 1.66566 12.4998 1.65417 12.5559C1.64851 12.5836 1.6452 12.6051 1.64343 12.6165C1.64299 12.6182 1.64167 12.6201 1.64148 12.6213L1.64245 12.6223V12.6243L1.64148 12.6262L1.61511 12.7454C1.52462 13.0214 1.24996 13.2055 0.950071 13.1711C0.607587 13.1317 0.361458 12.8222 0.400266 12.4797L1.02136 12.551C0.424618 12.4826 0.401126 12.4802 0.400266 12.4797L0.401243 12.4758C0.401386 12.4746 0.401147 12.4725 0.401243 12.4709C0.40164 12.4678 0.402585 12.4636 0.403196 12.4592C0.404451 12.4499 0.405861 12.4374 0.408079 12.4231C0.412655 12.3939 0.419793 12.3537 0.429563 12.3059C0.449175 12.2101 0.48086 12.0781 0.531125 11.9231C0.631512 11.6139 0.809329 11.2 1.11804 10.7854C1.75565 9.92951 2.89936 9.14292 4.84753 9.14282Z" fill="black"/>
</svg>
