<svg width="25" height="25" viewBox="0 0 25 25" fill="none" xmlns="http://www.w3.org/2000/svg">
<path d="M14.2699 20.333C14.546 20.0245 15.0208 19.9986 15.3294 20.2744C15.6376 20.5506 15.6639 21.0245 15.388 21.333C14.6796 22.1245 13.647 22.625 12.4993 22.625C11.3519 22.6248 10.32 22.1244 9.61165 21.333C9.33583 21.0244 9.36187 20.5506 9.67024 20.2744C9.97874 19.9983 10.4525 20.0248 10.7288 20.333C11.1646 20.8199 11.7963 21.1248 12.4993 21.125C13.2026 21.125 13.8339 20.82 14.2699 20.333Z" fill="black"/>
<path fill-rule="evenodd" clip-rule="evenodd" d="M12.5003 2.375C16.3979 2.37517 19.6065 5.44136 19.7835 9.33496L19.9124 12.1816C19.9762 13.5825 20.4441 14.935 21.2591 16.0762L21.3109 16.1484C22.1568 17.333 21.3102 18.9789 19.8548 18.9795H5.14583C3.69015 18.9792 2.8436 17.3331 3.68977 16.1484L3.74153 16.0762C4.55651 14.9351 5.02447 13.5824 5.08821 12.1816L5.21712 9.33496C5.39411 5.44126 8.60259 2.375 12.5003 2.375ZM12.5003 3.875C9.40463 3.875 6.85686 6.30989 6.71614 9.40234L6.58626 12.249C6.50944 13.9391 5.94554 15.5715 4.96223 16.9482L4.91048 17.0205C4.77345 17.2123 4.91021 17.4792 5.14583 17.4795H19.8548C20.0902 17.4789 20.2269 17.2122 20.0902 17.0205L20.0384 16.9482C19.055 15.5715 18.4912 13.9392 18.4144 12.249L18.2845 9.40234C18.1438 6.30999 15.5959 3.87517 12.5003 3.875Z" fill="black"/>
</svg>
