<svg width="16" height="16" viewBox="0 0 16 16" fill="none" xmlns="http://www.w3.org/2000/svg">
<path d="M9.53593 4.32153L7.45862 7.78372L7.23744 7.56253C7.00126 7.32635 6.71436 7.17179 6.4118 7.09885L8.46407 3.67841C8.64166 3.38242 9.02557 3.28645 9.32156 3.46404C9.61755 3.64163 9.71353 4.02554 9.53593 4.32153Z" fill="black"/>
<path d="M4.76256 10.0374L5.60247 10.8773L4.73593 12.3215C4.63691 12.4866 4.46738 12.5968 4.27636 12.6203C4.08535 12.6438 3.89415 12.578 3.75806 12.4419L0.558058 9.24191C0.313981 8.99784 0.313981 8.60211 0.558058 8.35803C0.802136 8.11395 1.19786 8.11395 1.44194 8.35803L4.07591 10.992L4.69291 9.96367C4.71528 9.98875 4.7385 10.0133 4.76256 10.0374Z" fill="black"/>
<path d="M14.5359 4.32153C14.7135 4.02554 14.6175 3.64163 14.3216 3.46404C14.0256 3.28645 13.6417 3.38242 13.4641 3.67841L9.07591 10.992L6.44194 8.35803C6.19786 8.11395 5.80214 8.11395 5.55806 8.35803C5.31398 8.60211 5.31398 8.99784 5.55806 9.24191L8.75806 12.4419C8.89415 12.578 9.08535 12.6438 9.27636 12.6203C9.46738 12.5968 9.63691 12.4866 9.73593 12.3215L14.5359 4.32153Z" fill="black"/>
</svg>
