<svg width="56" height="56" viewBox="0 0 56 56" fill="none" xmlns="http://www.w3.org/2000/svg">
<rect x="-2" y="-2" width="60" height="60" rx="30" fill="#F2F4F7"/>
<rect x="-2" y="-2" width="60" height="60" rx="30" stroke="white" stroke-width="4"/>
<path fill-rule="evenodd" clip-rule="evenodd" d="M19.7194 38.022C16.8368 35.6376 15 32.0333 15 28C15 20.8203 20.8203 15 28 15C35.1797 15 41 20.8203 41 28C41 32.0333 39.1632 35.6376 36.2806 38.022C35.7423 38.7276 34.955 39.2974 34.1041 39.7229C32.4902 40.5298 30.3307 41 28 41C25.6693 41 23.5098 40.5298 21.8959 39.7229C21.045 39.2974 20.2577 38.7276 19.7194 38.022ZM17 28C17 21.9249 21.9249 17 28 17C34.0751 17 39 21.9249 39 28C39 30.5246 38.1495 32.8506 36.7194 34.707C36.2464 33.6572 35.231 32.8406 34.1041 32.2771C33.019 31.7346 31.6872 31.3443 30.2226 31.1467C31.8688 30.3285 33 28.6297 33 26.6667C33 23.9052 30.7614 21.6667 28 21.6667C25.2386 21.6667 23 23.9052 23 26.6667C23 28.6297 24.1312 30.3285 25.7774 31.1467C24.3128 31.3443 22.981 31.7346 21.8959 32.2771C20.769 32.8406 19.7536 33.6572 19.2806 34.707C17.8505 32.8506 17 30.5246 17 28ZM28 39C25.435 39 23.075 38.122 21.2042 36.6502C21.0607 36.4134 21 36.1918 21 36C21 35.4783 21.4489 34.7367 22.7904 34.066C24.072 33.4252 25.9124 33 28 33C30.0876 33 31.928 33.4252 33.2096 34.066C34.5511 34.7367 35 35.4783 35 36C35 36.1918 34.9393 36.4134 34.7959 36.6502C32.925 38.122 30.565 39 28 39ZM28 23.6667C26.3431 23.6667 25 25.0098 25 26.6667C25 28.3235 26.3431 29.6667 28 29.6667C29.6569 29.6667 31 28.3235 31 26.6667C31 25.0098 29.6569 23.6667 28 23.6667Z" fill="#515C6C"/>
</svg>
