<svg width="24" height="24" viewBox="0 0 24 24" fill="none" xmlns="http://www.w3.org/2000/svg">
<path d="M15.1445 7.9209C15.4085 7.84187 15.6947 7.91473 15.8896 8.10938C16.0847 8.30441 16.1573 8.59127 16.0781 8.85547L13.4863 17.4951C13.3971 17.7924 13.1337 18.0039 12.8242 18.0273C12.5148 18.0506 12.2227 17.881 12.0898 17.6006L10.2598 13.7383L6.39844 11.9092C6.11829 11.7762 5.9483 11.4841 5.97168 11.1748C5.99531 10.8657 6.20707 10.603 6.50391 10.5137L15.1445 7.9209Z" fill="black"/>
<path fill-rule="evenodd" clip-rule="evenodd" d="M12 2.12988C17.451 2.12995 21.8701 6.54904 21.8701 12C21.8701 17.451 17.451 21.8701 12 21.8701C6.54904 21.8701 2.12995 17.451 2.12988 12C2.12995 6.54905 6.54905 2.12995 12 2.12988ZM12 3.62988C7.37747 3.62995 3.62995 7.37747 3.62988 12C3.62995 16.6225 7.37747 20.3701 12 20.3701C16.6225 20.3701 20.3701 16.6225 20.3701 12C20.3701 7.37747 16.6225 3.62995 12 3.62988Z" fill="black"/>
</svg>
