<svg width="24" height="24" viewBox="0 0 24 24" fill="none" xmlns="http://www.w3.org/2000/svg">
<g clip-path="url(#clip0_4361_4615)">
<path d="M2.0371 12.8851C2.31244 12.8688 2.67529 12.8786 2.95613 12.8785L4.57742 12.8786C5.7623 12.8788 7.30264 12.8548 8.52027 12.9028C8.55673 12.9043 8.6211 13.0763 8.63375 13.1228C8.94584 14.2687 9.29517 15.3994 9.73665 16.5028C10.1584 17.4715 11.2677 19.9782 12.6486 18.8947C13.862 17.9426 14.4192 16.0639 14.9022 14.6503C14.951 14.5074 14.973 14.2246 15.1546 14.2115L15.1867 14.2433C15.2813 14.5159 14.879 16.2267 14.7839 16.5734C14.1383 19.0348 12.7644 21.8036 9.87158 21.9328C5.47047 22.1294 2.98218 17.4237 2.11131 13.7373C2.06878 13.5573 1.9027 13.0261 2.0371 12.8851Z" fill="#F33F23"/>
<path d="M9.15731 2.0519C9.73282 1.99682 10.6421 2.08099 11.1547 2.35749C11.0156 2.58911 10.7774 2.77797 10.6025 2.98503C8.79302 5.12667 8.13635 8.34693 7.92164 11.0716C7.53879 11.0921 6.98651 11.0729 6.58973 11.0725L3.9451 11.0701L2.84267 11.0726C2.63668 11.0737 2.21925 11.0902 2.0344 11.0436C1.89684 10.9294 2.10382 10.27 2.14539 10.0957C2.57226 8.31464 3.29423 6.57912 4.35822 5.07918C5.39179 3.62216 6.89623 2.32622 8.72666 2.08519C8.87092 2.06619 9.00496 2.07542 9.15731 2.0519Z" fill="#FD781F"/>
<path d="M14.1145 2.00629H14.7419C14.8438 2.07045 15.2339 2.05953 15.4124 2.09638C16.2966 2.27884 17.1638 2.67883 17.8796 3.2485C19.8181 4.79123 20.974 7.13089 21.6541 9.46914C21.7762 9.88954 21.8824 10.3614 21.9714 10.7909C21.989 10.8749 21.9839 10.9755 21.9295 11.0464C21.7843 11.1131 18.118 11.0796 17.6989 11.0794L16.2817 11.08C16.0193 11.0801 15.6362 11.0894 15.3834 11.0598C15.2614 10.6931 15.1789 10.3081 15.0699 9.93631C14.7466 8.83351 14.3856 7.70966 13.8689 6.68105C13.5365 6.01926 13.0296 5.0813 12.2779 4.83569C11.9783 4.73781 11.7136 4.80573 11.443 4.94516C10.2726 5.54823 9.38607 8.27138 8.99815 9.47822C8.96458 9.58268 8.94523 9.68574 8.84233 9.73866C8.77917 9.73204 8.79369 9.7434 8.76066 9.70637C8.71399 9.54704 8.81871 9.0205 8.85248 8.836C9.33206 6.21584 10.4539 2.64837 13.4774 2.08749C13.6736 2.0511 13.9242 2.09168 14.1145 2.00629Z" fill="#F33F23"/>
<path d="M22.0099 12.9851C21.9531 13.0795 21.9539 13.201 21.9324 13.3102C21.1655 17.2127 18.3134 22.6296 13.5529 21.8395C13.38 21.8108 12.9485 21.7323 12.8534 21.5937C12.8398 21.5381 12.8582 21.4748 12.899 21.4356C15.0033 19.4122 15.6033 16.3495 15.9847 13.5724C16.0067 13.4118 15.9968 13.0519 16.0505 12.9194C16.1459 12.8528 17.1014 12.8789 17.2687 12.879L19.394 12.881L20.9422 12.8787C21.2447 12.8772 21.5528 12.8709 21.8547 12.8812C21.9383 12.884 21.9558 12.9063 22.0099 12.9681V12.9851Z" fill="#FD791F"/>
</g>
<defs>
<clipPath id="clip0_4361_4615">
<rect width="20.0655" height="19.9874" fill="white" transform="translate(1.94441 2.00629)"/>
</clipPath>
</defs>
</svg>
