<svg width="24" height="24" viewBox="0 0 24 24" fill="none" xmlns="http://www.w3.org/2000/svg">
<path fill-rule="evenodd" clip-rule="evenodd" d="M4.9128 11.7961H6.27492C6.46804 11.7961 6.63565 11.9266 6.67971 12.1112L8.51105 19.5498C8.53623 19.5501 10.5287 12.1172 10.5287 12.1172C10.5794 11.928 10.754 11.7961 10.9537 11.7961H13.0638C13.2533 11.7961 13.4189 11.9212 13.4671 12.1007L15.4742 19.5816C15.5484 19.5346 17.3204 12.1112 17.3204 12.1112C17.3647 11.9266 17.5323 11.7961 17.7252 11.7961H19.0865C19.3597 11.7961 19.5592 12.0491 19.4902 12.308L16.9925 21.685C16.9451 21.8635 16.7818 21.9886 16.594 21.9902L14.5339 21.9871C14.3448 21.9867 14.18 21.8632 14.1316 21.6842C13.7795 20.3846 12.0439 13.8124 12.0439 13.8124C12.0439 13.8124 10.2207 20.3845 9.8687 21.6842C9.82017 21.8632 9.65537 21.9867 9.46639 21.9871L7.40615 21.9902C7.2185 21.9886 7.05519 21.8635 7.00765 21.685L4.50982 12.307C4.44092 12.0485 4.64001 11.7961 4.9128 11.7961Z" fill="#005CB9"/>
<path fill-rule="evenodd" clip-rule="evenodd" d="M18.5132 9.04365C18.6011 9.04365 18.6906 9.03161 18.7795 9.00645C19.3062 8.85713 19.6141 8.30209 19.4674 7.76666C19.446 7.68885 19.4235 7.61136 19.3998 7.53462C18.3815 4.23002 15.4068 2.0097 11.9979 2.0097C8.59309 2.0097 5.61958 4.22642 4.59881 7.52566C4.57629 7.59818 4.55459 7.67189 4.53406 7.74598C4.38466 8.28077 4.69024 8.83726 5.21644 8.98885C5.74198 9.14057 6.28971 8.82989 6.43894 8.29509C6.45451 8.23978 6.47041 8.18494 6.4873 8.13039C7.24769 5.67309 9.46213 4.02262 11.9979 4.02262C14.5368 4.02262 16.7521 5.67574 17.5101 8.13632C17.5275 8.19288 17.5443 8.24987 17.56 8.3072C17.6821 8.7522 18.0799 9.04365 18.5132 9.04365Z" fill="#F38B00"/>
</svg>
