<svg width="24" height="24" viewBox="0 0 24 24" fill="none" xmlns="http://www.w3.org/2000/svg">
<path fill-rule="evenodd" clip-rule="evenodd" d="M12 14.1299C14.1372 14.1299 15.8701 15.8628 15.8701 18C15.8701 20.1372 14.1372 21.8701 12 21.8701C9.86275 21.8701 8.12995 20.1372 8.12988 18C8.12995 15.8628 9.86275 14.1299 12 14.1299ZM12 15.6299C10.6912 15.6299 9.62995 16.6912 9.62988 18C9.62995 19.3088 10.6912 20.3701 12 20.3701C13.3088 20.3701 14.3701 19.3088 14.3701 18C14.3701 16.6912 13.3088 15.6299 12 15.6299Z" fill="black"/>
<path fill-rule="evenodd" clip-rule="evenodd" d="M6 8.12988C8.13725 8.12995 9.87005 9.86275 9.87012 12C9.87005 14.1372 8.13725 15.8701 6 15.8701C3.86275 15.8701 2.12995 14.1372 2.12988 12C2.12995 9.86275 3.86275 8.12995 6 8.12988ZM6 9.62988C4.69118 9.62995 3.62995 10.6912 3.62988 12C3.62995 13.3088 4.69118 14.3701 6 14.3701C7.30882 14.3701 8.37005 13.3088 8.37012 12C8.37005 10.6912 7.30882 9.62995 6 9.62988Z" fill="black"/>
<path fill-rule="evenodd" clip-rule="evenodd" d="M18 8.12988C20.1372 8.12995 21.8701 9.86275 21.8701 12C21.8701 14.1372 20.1372 15.8701 18 15.8701C15.8628 15.8701 14.1299 14.1372 14.1299 12C14.1299 9.86275 15.8628 8.12995 18 8.12988ZM18 9.62988C16.6912 9.62995 15.6299 10.6912 15.6299 12C15.6299 13.3088 16.6912 14.3701 18 14.3701C19.3088 14.3701 20.3701 13.3088 20.3701 12C20.3701 10.6912 19.3088 9.62995 18 9.62988Z" fill="black"/>
<path fill-rule="evenodd" clip-rule="evenodd" d="M12 2.12988C14.1372 2.12995 15.8701 3.86275 15.8701 6C15.8701 8.13725 14.1372 9.87005 12 9.87012C9.86275 9.87005 8.12995 8.13725 8.12988 6C8.12995 3.86275 9.86275 2.12995 12 2.12988ZM12 3.62988C10.6912 3.62995 9.62995 4.69118 9.62988 6C9.62995 7.30882 10.6912 8.37005 12 8.37012C13.3088 8.37005 14.3701 7.30882 14.3701 6C14.3701 4.69118 13.3088 3.62995 12 3.62988Z" fill="black"/>
</svg>
