<svg width="25" height="25" viewBox="0 0 25 25" fill="none" xmlns="http://www.w3.org/2000/svg">
<path d="M12.5 15.25C14.433 15.25 16 16.817 16 18.75C16 20.683 14.433 22.25 12.5 22.25C10.567 22.25 9 20.683 9 18.75C9 16.817 10.567 15.25 12.5 15.25Z" fill="black"/>
<path d="M6.25 9C8.183 9 9.75 10.567 9.75 12.5C9.75 14.433 8.183 16 6.25 16C4.317 16 2.75 14.433 2.75 12.5C2.75 10.567 4.317 9 6.25 9Z" fill="black"/>
<path d="M18.75 9C20.683 9 22.25 10.567 22.25 12.5C22.25 14.433 20.683 16 18.75 16C16.817 16 15.25 14.433 15.25 12.5C15.25 10.567 16.817 9 18.75 9Z" fill="black"/>
<path d="M12.5 2.75C14.433 2.75 16 4.317 16 6.25C16 8.183 14.433 9.75 12.5 9.75C10.567 9.75 9 8.183 9 6.25C9 4.317 10.567 2.75 12.5 2.75Z" fill="black"/>
</svg>
