<svg width="24" height="24" viewBox="0 0 24 24" fill="none" xmlns="http://www.w3.org/2000/svg">
<path d="M8 6.75C7.30964 6.75 6.75 7.30964 6.75 8V16C6.75 16.6904 7.30964 17.25 8 17.25H16C16.6904 17.25 17.25 16.6904 17.25 16V14.25C17.25 13.8358 17.5858 13.5 18 13.5C18.4142 13.5 18.75 13.8358 18.75 14.25V16C18.75 17.5188 17.5188 18.75 16 18.75H8C6.48122 18.75 5.25 17.5188 5.25 16V8C5.25 6.48122 6.48122 5.25 8 5.25H9.75C10.1642 5.25 10.5 5.58579 10.5 6C10.5 6.41421 10.1642 6.75 9.75 6.75H8Z" fill="black"/>
<path d="M13.25 6C13.25 5.58579 13.5858 5.25 14 5.25H17C17.9665 5.25 18.75 6.0335 18.75 7V10C18.75 10.4142 18.4142 10.75 18 10.75C17.5858 10.75 17.25 10.4142 17.25 10V7.81066L12.5303 12.5303C12.2374 12.8232 11.7626 12.8232 11.4697 12.5303C11.1768 12.2374 11.1768 11.7626 11.4697 11.4697L16.1893 6.75H14C13.5858 6.75 13.25 6.41421 13.25 6Z" fill="black"/>
</svg>
