<svg width="20" height="20" viewBox="0 0 20 20" fill="none" xmlns="http://www.w3.org/2000/svg">
<path d="M14.3262 7.23014C14.5913 6.91193 14.5483 6.43901 14.2301 6.17384C13.9119 5.90866 13.439 5.95166 13.1738 6.26987L8.6996 11.6389L6.28033 9.21967C5.98744 8.92678 5.51256 8.92678 5.21967 9.21967C4.92678 9.51257 4.92678 9.98744 5.21967 10.2803L8.21967 13.2803C8.36867 13.4293 8.57348 13.5088 8.78399 13.4992C8.99449 13.4897 9.19127 13.392 9.32617 13.2301L14.3262 7.23014Z" fill="#515C6C"/>
<path fill-rule="evenodd" clip-rule="evenodd" d="M9.75 0C4.36522 0 0 4.36522 0 9.75C0 15.1348 4.36522 19.5 9.75 19.5C15.1348 19.5 19.5 15.1348 19.5 9.75C19.5 4.36522 15.1348 0 9.75 0ZM1.5 9.75C1.5 5.19365 5.19365 1.5 9.75 1.5C14.3063 1.5 18 5.19365 18 9.75C18 14.3063 14.3063 18 9.75 18C5.19365 18 1.5 14.3063 1.5 9.75Z" fill="#515C6C"/>
</svg>
