<svg width="24" height="24" viewBox="0 0 24 24" fill="none" xmlns="http://www.w3.org/2000/svg">
<rect x="2" y="5" width="20" height="14" rx="3" fill="#F93939"/>
<path fill-rule="evenodd" clip-rule="evenodd" d="M15.3353 13.0752L14.2286 13.6445L14.44 12.4377L13.5448 11.5819L14.7829 11.4045L15.3353 10.3069L15.8877 11.4055L17.1258 11.5828L16.2305 12.4368L16.4419 13.6436" fill="white"/>
<path fill-rule="evenodd" clip-rule="evenodd" d="M11.0476 15.2667C12.8885 15.2667 14.3809 13.8041 14.3809 12C14.3809 10.1959 12.8885 8.73334 11.0476 8.73334C9.20661 8.73334 7.71423 10.1959 7.71423 12C7.71423 13.8041 9.20661 15.2667 11.0476 15.2667ZM11.9999 14.3333C13.3142 14.3333 14.3809 13.288 14.3809 12C14.3809 10.712 13.3142 9.66667 11.9999 9.66667C10.6857 9.66667 9.619 10.712 9.619 12C9.619 13.288 10.6857 14.3333 11.9999 14.3333Z" fill="white"/>
</svg>
