<svg width="24" height="24" viewBox="0 0 24 24" fill="none" xmlns="http://www.w3.org/2000/svg">
<g clip-path="url(#clip0_4361_4616)">
<path d="M11.5955 1.96228H12.369C12.4693 1.99543 12.5691 1.99968 12.6742 2.00157C13.2694 2.01233 13.8215 2.10818 14.3974 2.25096C17.0992 2.91507 19.4029 4.67307 20.7566 7.10371C22.0753 9.48759 22.3743 12.3034 21.5852 14.911C20.5473 18.4295 17.5366 21.1175 13.9483 21.8339C13.7097 21.8816 13.0475 21.9304 12.8746 22.0126H11.2181C10.8317 21.9388 10.4353 21.9051 10.0464 21.8274C8.79431 21.5779 7.60014 21.096 6.52576 20.4063C3.9912 18.7538 2.28424 15.9989 2.00889 12.9789C2.00034 12.885 1.99856 12.792 1.97837 12.6997L1.97482 12.684V11.2871C2.00219 11.2024 2.01235 10.9858 2.02285 10.8863C2.04659 10.6738 2.07339 10.4616 2.10325 10.2499C2.1852 9.70647 2.46983 8.75115 2.67599 8.2472C3.84993 5.30585 6.35093 3.09679 9.41472 2.29505C9.88007 2.17283 10.3168 2.08174 10.7965 2.03151C10.9579 2.01461 11.4933 2.01094 11.5955 1.96228ZM11.3712 11.2837C11.3658 10.543 11.3642 9.80222 11.3665 9.0615C11.3663 8.46024 11.358 7.83786 11.3743 7.23807C11.1812 7.2499 10.5406 7.26319 10.3541 7.2452C10.3928 8.77517 10.3346 10.3209 10.3616 11.8507C10.3773 12.7416 10.2861 13.7629 10.4789 14.6265C10.8103 16.1114 12.2963 17.0718 13.7694 17.0273C14.6878 16.9965 15.5573 16.6057 16.1901 15.9394C16.3345 15.7851 16.4321 15.6537 16.5546 15.4842C18.3264 12.5203 15.4491 9.23318 12.2838 10.5671C11.9217 10.7197 11.6236 10.9844 11.3712 11.2837ZM9.32148 10.7489C8.94545 10.3773 8.47018 9.84154 8.06091 9.50705C7.37428 8.94591 6.28001 8.51074 5.42523 8.26763C5.22323 8.21018 4.97727 8.20242 4.76924 8.15898C5.03469 8.35684 5.29466 8.60664 5.54259 8.82902C6.72883 9.8912 7.0634 11.0093 8.78444 11.3653C9.14108 11.4391 9.4977 11.4868 9.84929 11.5511C9.39414 10.1235 9.11531 8.42079 7.71208 7.60144C7.59262 7.53168 7.33289 7.31627 7.21235 7.3011L7.22353 7.31663C7.34562 7.48402 7.52125 7.6397 7.64929 7.8099C8.2058 8.54964 8.67761 9.34461 9.06309 10.1861C9.13082 10.3339 9.27603 10.6115 9.32148 10.7489Z" fill="#74C61E"/>
<path d="M13.4456 11.2315C14.7904 11.0955 15.9903 12.0769 16.1237 13.4219C16.2571 14.767 15.2735 15.965 13.9281 16.0958C12.5865 16.2263 11.3925 15.2458 11.2594 13.9045C11.1264 12.5631 12.1045 11.3672 13.4456 11.2315Z" fill="#74C61E"/>
</g>
<defs>
<clipPath id="clip0_4361_4616">
<rect width="20.0504" height="20.0504" fill="white" transform="translate(1.97482 1.96228)"/>
</clipPath>
</defs>
</svg>
