<svg width="25" height="25" viewBox="0 0 25 25" fill="none" xmlns="http://www.w3.org/2000/svg">
<path fill-rule="evenodd" clip-rule="evenodd" d="M12.5 15C14.7091 15 16.5 16.7909 16.5 19C16.5 21.2091 14.7091 23 12.5 23C10.2909 23 8.5 21.2091 8.5 19C8.5 16.7909 10.2909 15 12.5 15ZM12.5 16.5C11.1193 16.5 10 17.6193 10 19C10 20.3807 11.1193 21.5 12.5 21.5C13.8807 21.5 15 20.3807 15 19C15 17.6193 13.8807 16.5 12.5 16.5Z" fill="black"/>
<path fill-rule="evenodd" clip-rule="evenodd" d="M6 8.5C8.20914 8.5 10 10.2909 10 12.5C10 14.7091 8.20914 16.5 6 16.5C3.79086 16.5 2 14.7091 2 12.5C2 10.2909 3.79086 8.5 6 8.5ZM6 10C4.61929 10 3.5 11.1193 3.5 12.5C3.5 13.8807 4.61929 15 6 15C7.38071 15 8.5 13.8807 8.5 12.5C8.5 11.1193 7.38071 10 6 10Z" fill="black"/>
<path fill-rule="evenodd" clip-rule="evenodd" d="M19 8.5C21.2091 8.5 23 10.2909 23 12.5C23 14.7091 21.2091 16.5 19 16.5C16.7909 16.5 15 14.7091 15 12.5C15 10.2909 16.7909 8.5 19 8.5ZM19 10C17.6193 10 16.5 11.1193 16.5 12.5C16.5 13.8807 17.6193 15 19 15C20.3807 15 21.5 13.8807 21.5 12.5C21.5 11.1193 20.3807 10 19 10Z" fill="black"/>
<path fill-rule="evenodd" clip-rule="evenodd" d="M12.5 2C14.7091 2 16.5 3.79086 16.5 6C16.5 8.20914 14.7091 10 12.5 10C10.2909 10 8.5 8.20914 8.5 6C8.5 3.79086 10.2909 2 12.5 2ZM12.5 3.5C11.1193 3.5 10 4.61929 10 6C10 7.38071 11.1193 8.5 12.5 8.5C13.8807 8.5 15 7.38071 15 6C15 4.61929 13.8807 3.5 12.5 3.5Z" fill="black"/>
</svg>
