<svg width="26" height="26" viewBox="0 0 26 26" fill="none" xmlns="http://www.w3.org/2000/svg">
<path d="M10.3848 5.25C10.7989 5.25008 11.1348 5.58584 11.1348 6C11.1348 6.41416 10.7989 6.74992 10.3848 6.75H8C7.30964 6.75 6.75 7.30964 6.75 8V18C6.75 18.6904 7.30964 19.25 8 19.25H18C18.6904 19.25 19.25 18.6904 19.25 18V15.6152C19.2501 15.2011 19.5858 14.8652 20 14.8652C20.4142 14.8652 20.7499 15.2011 20.75 15.6152V18C20.75 19.5188 19.5188 20.75 18 20.75H8C6.48122 20.75 5.25 19.5188 5.25 18V8C5.25 6.48122 6.48122 5.25 8 5.25H10.3848Z" fill="black"/>
<path d="M19.4736 5.22461C20.1639 5.22464 20.7236 5.7843 20.7236 6.47461L20.7246 10.9746C20.7245 11.3887 20.3887 11.7245 19.9746 11.7246C19.5605 11.7245 19.2247 11.3887 19.2246 10.9746V7.88086L14.0527 13.0527C13.7599 13.3456 13.2851 13.3455 12.9922 13.0527C12.6993 12.7598 12.6993 12.2851 12.9922 11.9922L18.2598 6.72461H14.9746C14.5604 6.72461 14.2246 6.38882 14.2246 5.97461C14.2246 5.5604 14.5604 5.22461 14.9746 5.22461H19.4736Z" fill="black"/>
</svg>
