<svg width="24" height="24" viewBox="0 0 24 24" fill="none" xmlns="http://www.w3.org/2000/svg">
<g clip-path="url(#clip0_1768_6095)">
<rect x="2" y="5" width="20" height="14" rx="3" fill="#1A47B8"/>
<path fill-rule="evenodd" clip-rule="evenodd" d="M2 14.3333H22V19H2V14.3333Z" fill="#F93939"/>
<path fill-rule="evenodd" clip-rule="evenodd" d="M2 5H22V9.66667H2V5Z" fill="white"/>
<path d="M8.19052 7.79999H6.28575C5.75977 7.79999 5.33337 8.21786 5.33337 8.73332V11.0667C5.33337 11.5821 5.75977 12 6.28575 12H8.19052C8.7165 12 9.1429 11.5821 9.1429 11.0667V8.73332C9.1429 8.21786 8.7165 7.79999 8.19052 7.79999Z" fill="#F93939"/>
<path d="M7.71433 7.79999H6.76195C6.23597 7.79999 5.80957 8.21786 5.80957 8.73332V10.6C5.80957 11.1155 6.23597 11.5333 6.76195 11.5333H7.71433C8.24032 11.5333 8.66671 11.1155 8.66671 10.6V8.73332C8.66671 8.21786 8.24032 7.79999 7.71433 7.79999Z" fill="#1A47B8"/>
<path fill-rule="evenodd" clip-rule="evenodd" d="M5.80957 10.6L7.23814 10.1333L8.66671 10.6L7.71433 11.5333H6.76195L5.80957 10.6Z" fill="white"/>
<path fill-rule="evenodd" clip-rule="evenodd" d="M6.76196 8.73334H7.71434V9.66667H6.76196V8.73334Z" fill="#FFDA2C"/>
</g>
<defs>
<clipPath id="clip0_1768_6095">
<rect x="2" y="5" width="20" height="14" rx="3" fill="white"/>
</clipPath>
</defs>
</svg>
