<svg width="24" height="24" viewBox="0 0 24 24" fill="none" xmlns="http://www.w3.org/2000/svg">
<g clip-path="url(#clip0_1772_6452)">
<rect x="2" y="2" width="20" height="20" rx="10" fill="#1A47B8"/>
<path fill-rule="evenodd" clip-rule="evenodd" d="M0.97863 2H-2V5.33333L23.0052 22L26 22V18.6667L0.97863 2Z" fill="white"/>
<path d="M-1.00654 2L26 20.0472V22H25.0298L-2 3.93408V2H-1.00654Z" fill="#F93939"/>
<path fill-rule="evenodd" clip-rule="evenodd" d="M23.3333 2H26V5.33333C26 5.33333 8.67974 16.4374 0.666667 22H-2V18.6667L23.3333 2Z" fill="white"/>
<path d="M26 2H25.0957L-2 20.0628V22H-1.00654L26 3.94868V2Z" fill="#F93939"/>
<path fill-rule="evenodd" clip-rule="evenodd" d="M8.18277 2H15.8405V8.16909H26V15.8268H15.8405V22H8.18277V15.8268H-2V8.16909H8.18277V2Z" fill="white"/>
<path fill-rule="evenodd" clip-rule="evenodd" d="M9.78947 2H14.2105V9.69231H26V14.3077H14.2105V22H9.78947V14.3077H-2V9.69231H9.78947V2Z" fill="#F93939"/>
</g>
<mask id="mask0_1772_6452" style="mask-type:alpha" maskUnits="userSpaceOnUse" x="2" y="2" width="19" height="16">
<path fill-rule="evenodd" clip-rule="evenodd" d="M12 2C6.47715 2 2 6.47715 2 12C2 14.0418 2.61193 15.9407 3.6624 17.5232L20.1784 6.24404C18.3683 3.67686 15.38 2 12 2Z" fill="#D9D9D9"/>
</mask>
<g mask="url(#mask0_1772_6452)">
<rect x="2" y="2" width="20" height="20" rx="10" fill="white"/>
<path fill-rule="evenodd" clip-rule="evenodd" d="M2 2H14V11.3333H2V2Z" fill="#1A47B8"/>
<path fill-rule="evenodd" clip-rule="evenodd" d="M14 2V3.33333H30V2H14ZM14 4.66667V6H30V4.66667H14ZM14 7.33333V8.66667H30V7.33333H14ZM14 10V11.3333H30V10H14ZM2 12.6667V14H30V12.6667H2ZM2 15.3333V16.6667H30V15.3333H2ZM2 18V19.3333H30V18H2ZM2 20.6667V22H30V20.6667H2Z" fill="#F93939"/>
<path fill-rule="evenodd" clip-rule="evenodd" d="M3.33333 3.33331V4.66665H4.66666V3.33331H3.33333ZM5.99999 3.33331V4.66665H7.33333V3.33331H5.99999ZM8.66666 3.33331V4.66665H10V3.33331H8.66666ZM11.3333 3.33331V4.66665H12.6667V3.33331H11.3333ZM10 4.66665V5.99998H11.3333V4.66665H10ZM7.33333 4.66665V5.99998H8.66666V4.66665H7.33333ZM4.66666 4.66665V5.99998H5.99999V4.66665H4.66666ZM3.33333 5.99998V7.33331H4.66666V5.99998H3.33333ZM5.99999 5.99998V7.33331H7.33333V5.99998H5.99999ZM8.66666 5.99998V7.33331H10V5.99998H8.66666ZM11.3333 5.99998V7.33331H12.6667V5.99998H11.3333ZM3.33333 8.66665V9.99998H4.66666V8.66665H3.33333ZM5.99999 8.66665V9.99998H7.33333V8.66665H5.99999ZM8.66666 8.66665V9.99998H10V8.66665H8.66666ZM11.3333 8.66665V9.99998H12.6667V8.66665H11.3333ZM10 7.33331V8.66665H11.3333V7.33331H10ZM7.33333 7.33331V8.66665H8.66666V7.33331H7.33333ZM4.66666 7.33331V8.66665H5.99999V7.33331H4.66666Z" fill="white"/>
</g>
<defs>
<clipPath id="clip0_1772_6452">
<rect x="2" y="2" width="20" height="20" rx="10" fill="white"/>
</clipPath>
</defs>
</svg>
