<svg width="24" height="24" viewBox="0 0 24 24" fill="none" xmlns="http://www.w3.org/2000/svg">
<g clip-path="url(#clip0_1757_6396)">
<rect x="2" y="2" width="20" height="20" rx="10" fill="#AF010D"/>
<path fill-rule="evenodd" clip-rule="evenodd" d="M-2 2L11.3333 11.3333H12.6667L3.33333 2H-2ZM-2 22L11.3333 12.6667H12.6667L3.33333 22H-2Z" fill="#FFDA2C"/>
<path fill-rule="evenodd" clip-rule="evenodd" d="M12.6667 11.3333H11.3333L20.6667 2H26L12.6667 11.3333ZM12.6667 12.6667H11.3333L20.6667 22H26L12.6667 12.6667ZM8.66667 11.3333L-2 10V14L8.66667 12.6667V11.3333ZM15.3333 11.3333L26 10V14L15.3333 12.6667V11.3333ZM11.3333 8.66667L10 2H14L12.6667 8.66667H11.3333ZM11.3333 15.3333L10 22H14L12.6667 15.3333" fill="#FFDA2C"/>
<path d="M12 15.3334C13.841 15.3334 15.3334 13.841 15.3334 12C15.3334 10.1591 13.841 8.66669 12 8.66669C10.1591 8.66669 8.66669 10.1591 8.66669 12C8.66669 13.841 10.1591 15.3334 12 15.3334Z" fill="#AF010D"/>
<path d="M12 14C13.1046 14 14 13.1046 14 12C14 10.8954 13.1046 10 12 10C10.8954 10 10 10.8954 10 12C10 13.1046 10.8954 14 12 14Z" fill="#FFDA2C"/>
</g>
<defs>
<clipPath id="clip0_1757_6396">
<rect x="2" y="2" width="20" height="20" rx="10" fill="white"/>
</clipPath>
</defs>
</svg>
