<svg width="24" height="24" viewBox="0 0 24 24" fill="none" xmlns="http://www.w3.org/2000/svg">
<g clip-path="url(#clip0_1757_6388)">
<rect x="2" y="2" width="20" height="20" rx="10" fill="#1A47B8"/>
<path fill-rule="evenodd" clip-rule="evenodd" d="M2 15.3333H30V22H2V15.3333Z" fill="white"/>
<path fill-rule="evenodd" clip-rule="evenodd" d="M2 2H30V8.66667H2V2ZM12.6667 15.3333V8.66667H7.33333V15.3333C7.33333 16.8067 8.52667 18 10 18C11.4733 18 12.6667 16.8067 12.6667 15.3333Z" fill="#F93939"/>
<path fill-rule="evenodd" clip-rule="evenodd" d="M8.66671 8.66667L7.33337 7.33333C7.33337 7.33333 8.66671 6 10 6C11.3334 6 12.6667 7.33333 12.6667 7.33333L11.3334 8.66667H8.66671Z" fill="#FFDA2C"/>
<path fill-rule="evenodd" clip-rule="evenodd" d="M8.66671 10L7.33337 11.3333L10 12.6667L8.66671 15.3333L10 18L11.3334 15.3333L10 12.6667L12.6667 11.3333L11.3334 10L10 11.3333L8.66671 10Z" fill="white"/>
<path fill-rule="evenodd" clip-rule="evenodd" d="M8.66671 10H7.33337V11.3333L8.66671 10ZM11.3334 10H12.6667V11.3333L11.3334 10Z" fill="#FFDA2C"/>
<path fill-rule="evenodd" clip-rule="evenodd" d="M9.99996 6L8.66663 7.33333L9.99996 8.66667L11.3333 7.33333L9.99996 6Z" fill="#A75835"/>
<path fill-rule="evenodd" clip-rule="evenodd" d="M10 12.6667L7.33337 14H12.6667L10 12.6667Z" fill="#88605F"/>
</g>
<defs>
<clipPath id="clip0_1757_6388">
<rect x="2" y="2" width="20" height="20" rx="10" fill="white"/>
</clipPath>
</defs>
</svg>
