<svg width="24" height="24" viewBox="0 0 24 24" fill="none" xmlns="http://www.w3.org/2000/svg">
<g clip-path="url(#clip0_1768_6114)">
<rect x="2" y="5" width="20" height="14" rx="3" fill="white"/>
<path fill-rule="evenodd" clip-rule="evenodd" d="M2 5H5.80952V8.73333H2V5ZM7.71429 5H11.5238V8.73333H7.71429V5ZM2 10.6H5.80952V14.3333H2V10.6ZM7.71429 10.6H11.5238V14.3333H7.71429V10.6ZM11.5238 5H22V6.86667H11.5238V5ZM11.5238 8.73333H22V10.6H11.5238V8.73333Z" fill="#1A47B8"/>
<path fill-rule="evenodd" clip-rule="evenodd" d="M2 12.4667H22V14.3333H2V12.4667ZM5.80952 12.4667H7.71429V14.3333H5.80952V12.4667ZM2 16.2H22V18.0667H2V16.2Z" fill="#1A47B8"/>
</g>
<defs>
<clipPath id="clip0_1768_6114">
<rect x="2" y="5" width="20" height="14" rx="3" fill="white"/>
</clipPath>
</defs>
</svg>
