<svg width="24" height="24" viewBox="0 0 24 24" fill="none" xmlns="http://www.w3.org/2000/svg">
<g clip-path="url(#clip0_1757_6415)">
<rect x="2" y="2" width="20" height="20" rx="10" fill="#F93939"/>
<path d="M27.3333 2H4.66667C3.19391 2 2 3.19391 2 4.66667V19.3333C2 20.8061 3.19391 22 4.66667 22H27.3333C28.8061 22 30 20.8061 30 19.3333V4.66667C30 3.19391 28.8061 2 27.3333 2Z" fill="#F93939"/>
<path fill-rule="evenodd" clip-rule="evenodd" d="M9.33082 11.64L7.37082 12.6707L7.74416 10.488L6.16016 8.94133L8.35082 8.62533L9.33082 6.63867L10.3095 8.62533L12.5002 8.94133L10.9135 10.488L11.2895 12.6693L9.33082 11.64ZM14.0002 6H15.3335V7.33333H14.0002V6ZM15.3335 8.66667H16.6668V10H15.3335V8.66667ZM15.3335 11.3333H16.6668V12.6667H15.3335V11.3333ZM14.0002 14H15.3335V15.3333H14.0002V14Z" fill="#FFDA2C"/>
</g>
<defs>
<clipPath id="clip0_1757_6415">
<rect x="2" y="2" width="20" height="20" rx="10" fill="white"/>
</clipPath>
</defs>
</svg>
