<svg width="24" height="24" viewBox="0 0 24 24" fill="none" xmlns="http://www.w3.org/2000/svg">
<g clip-path="url(#clip0_2960_1490)">
<rect x="2" y="5" width="20" height="14" rx="3" fill="#FFDA2C"/>
<path d="M20.0952 5H3.90476C2.85279 5 2 5.83574 2 6.86667V17.1333C2 18.1643 2.85279 19 3.90476 19H20.0952C21.1472 19 22 18.1643 22 17.1333V6.86667C22 5.83574 21.1472 5 20.0952 5Z" fill="#FFDA2C"/>
<path fill-rule="evenodd" clip-rule="evenodd" d="M2 5L22 18.0667L21.8829 19.0933L2 19V5Z" fill="#1A47B8"/>
<path fill-rule="evenodd" clip-rule="evenodd" d="M2.95239 7.79999H3.90477V8.73332H2.95239V7.79999ZM5.80954 9.66665H6.76192V10.6H5.80954V9.66665ZM8.66668 11.5333H9.61906V12.4667H8.66668V11.5333ZM11.5238 13.4H12.4762V14.3333H11.5238V13.4ZM14.381 15.2667H15.3333V16.2H14.381V15.2667ZM17.2381 17.1333H18.1905V18.0667H17.2381V17.1333Z" fill="white"/>
</g>
<defs>
<clipPath id="clip0_2960_1490">
<rect x="2" y="5" width="20" height="14" rx="3" fill="white"/>
</clipPath>
</defs>
</svg>
