<svg width="24" height="24" viewBox="0 0 24 24" fill="none" xmlns="http://www.w3.org/2000/svg">
<g clip-path="url(#clip0_1768_6123)">
<rect x="2" y="5" width="20" height="14" rx="3" fill="#F93939"/>
<path d="M20.0952 5H3.90476C2.85279 5 2 5.83574 2 6.86667V17.1333C2 18.1643 2.85279 19 3.90476 19H20.0952C21.1472 19 22 18.1643 22 17.1333V6.86667C22 5.83574 21.1472 5 20.0952 5Z" fill="#F93939"/>
<path fill-rule="evenodd" clip-rule="evenodd" d="M2 8.73334H22V15.2667H2V8.73334Z" fill="#FFDA2C"/>
<path fill-rule="evenodd" clip-rule="evenodd" d="M10.5715 10.8072V13.1592C10.5715 13.8125 9.93148 14.3352 9.1429 14.3352H7.23814C6.45148 14.3333 5.80957 13.8079 5.80957 13.1573V10.8053C5.80957 10.2715 6.23624 9.82534 6.8229 9.68067C7.00005 9.19534 7.54481 9.63027 8.19052 9.63027C8.84005 9.63027 9.381 9.19814 9.55814 9.68161C10.1429 9.83001 10.5715 10.2771 10.5715 10.8072Z" fill="#D4AF2C"/>
<path fill-rule="evenodd" clip-rule="evenodd" d="M10.5715 11.5333H11.5238V14.3333H10.5715V11.5333ZM4.85718 11.5333H5.80956V14.3333H4.85718V11.5333Z" fill="#CBCBCB"/>
<path fill-rule="evenodd" clip-rule="evenodd" d="M10.5715 13.4H11.5238V14.3333H10.5715V13.4ZM4.85718 13.4H5.80956V14.3333H4.85718V13.4Z" fill="#1A47B8"/>
<path fill-rule="evenodd" clip-rule="evenodd" d="M10.5715 10.6H11.5238V11.5333H10.5715V10.6ZM4.85718 10.6H5.80956V11.5333H4.85718V10.6Z" fill="#D4AF2C"/>
<path fill-rule="evenodd" clip-rule="evenodd" d="M6.76196 10.6H7.71434V12H6.76196V10.6ZM8.66672 12.4667H9.61911V13.8667H8.66672V12.4667Z" fill="#AF010D"/>
<path fill-rule="evenodd" clip-rule="evenodd" d="M6.76196 12.4667H7.71434V13.8667H6.76196V12.4667Z" fill="#FFDA2C"/>
<path fill-rule="evenodd" clip-rule="evenodd" d="M8.66663 10.6H9.61901V12H8.66663V10.6Z" fill="#AE6A3E"/>
<path fill-rule="evenodd" clip-rule="evenodd" d="M7.71434 10.6L6.76196 9.66666H9.61911L8.66672 10.6H7.71434Z" fill="#AF010D"/>
<path fill-rule="evenodd" clip-rule="evenodd" d="M7.71423 8.73334H8.66661V9.66667H7.71423V8.73334Z" fill="#D4AF2C"/>
</g>
<defs>
<clipPath id="clip0_1768_6123">
<rect x="2" y="5" width="20" height="14" rx="3" fill="white"/>
</clipPath>
</defs>
</svg>
