<svg width="24" height="24" viewBox="0 0 24 24" fill="none" xmlns="http://www.w3.org/2000/svg">
<path d="M8 5H19C20.6569 5 22 6.34315 22 8V16C22 17.6569 20.6569 19 19 19H8V5Z" fill="#F93939"/>
<path fill-rule="evenodd" clip-rule="evenodd" d="M2 8C2 6.34315 3.34315 5 5 5H8.66667V19H5C3.34314 19 2 17.6569 2 16V8Z" fill="#249F58"/>
<path d="M8.66671 14.3333C10.2447 14.3333 11.5239 13.0797 11.5239 11.5333C11.5239 9.98694 10.2447 8.73334 8.66671 8.73334C7.08876 8.73334 5.80957 9.98694 5.80957 11.5333C5.80957 13.0797 7.08876 14.3333 8.66671 14.3333Z" fill="#FFDA2C"/>
<path fill-rule="evenodd" clip-rule="evenodd" d="M10.5715 12.4667V9.66666H6.76196V12.4667C6.76196 12.9819 7.61434 13.4 8.66672 13.4C9.71911 13.4 10.5715 12.9819 10.5715 12.4667Z" fill="#F93939"/>
<path fill-rule="evenodd" clip-rule="evenodd" d="M7.71423 10.6H9.619V12.4667H7.71423V10.6Z" fill="white"/>
<path fill-rule="evenodd" clip-rule="evenodd" d="M7.71423 10.6H8.66661V11.5333H7.71423V10.6ZM8.66661 11.5333H9.619V12.4667H8.66661V11.5333Z" fill="#1A47B8"/>
</svg>
