<svg width="24" height="24" viewBox="0 0 24 24" fill="none" xmlns="http://www.w3.org/2000/svg">
<g clip-path="url(#clip0_1757_6416)">
<rect x="2" y="2" width="20" height="20" rx="10" fill="#F93939"/>
<path d="M27.3333 2H4.66667C3.19391 2 2 3.19391 2 4.66667V19.3333C2 20.8061 3.19391 22 4.66667 22H27.3333C28.8061 22 30 20.8061 30 19.3333V4.66667C30 3.19391 28.8061 2 27.3333 2Z" fill="#F93939"/>
<path fill-rule="evenodd" clip-rule="evenodd" d="M2 7.33331H30V16.6666H2V7.33331Z" fill="#FFDA2C"/>
<path fill-rule="evenodd" clip-rule="evenodd" d="M14 10.296V13.656C14 14.5894 13.104 15.336 12 15.336H9.33337C8.23204 15.3334 7.33337 14.5827 7.33337 13.6534V10.2934C7.33337 9.53069 7.93071 8.89336 8.75204 8.68669C9.00004 7.99336 9.76271 8.61469 10.6667 8.61469C11.576 8.61469 12.3334 7.99736 12.5814 8.68803C13.4 8.90003 14 9.53869 14 10.296Z" fill="#D4AF2C"/>
<path fill-rule="evenodd" clip-rule="evenodd" d="M14 11.3333H15.3333V15.3333H14V11.3333ZM6 11.3333H7.33333V15.3333H6V11.3333Z" fill="#CBCBCB"/>
<path fill-rule="evenodd" clip-rule="evenodd" d="M14 14H15.3333V15.3333H14V14ZM6 14H7.33333V15.3333H6V14Z" fill="#1A47B8"/>
<path fill-rule="evenodd" clip-rule="evenodd" d="M14 10H15.3333V11.3333H14V10ZM6 10H7.33333V11.3333H6V10Z" fill="#D4AF2C"/>
<path fill-rule="evenodd" clip-rule="evenodd" d="M8.66663 10H9.99996V12H8.66663V10ZM11.3333 12.6667H12.6666V14.6667H11.3333V12.6667Z" fill="#AF010D"/>
<path fill-rule="evenodd" clip-rule="evenodd" d="M11.3334 10H12.6667V12H11.3334V10Z" fill="#AE6A3E"/>
<path fill-rule="evenodd" clip-rule="evenodd" d="M8.66663 12.6667H9.99996V14.6667H8.66663V12.6667Z" fill="#FFDA2C"/>
<path fill-rule="evenodd" clip-rule="evenodd" d="M9.99996 10L8.66663 8.66669H12.6666L11.3333 10H9.99996Z" fill="#AF010D"/>
<path fill-rule="evenodd" clip-rule="evenodd" d="M10 7.33331H11.3333V8.66665H10V7.33331Z" fill="#D4AF2C"/>
</g>
<defs>
<clipPath id="clip0_1757_6416">
<rect x="2" y="2" width="20" height="20" rx="10" fill="white"/>
</clipPath>
</defs>
</svg>
