<svg width="24" height="24" viewBox="0 0 24 24" fill="none" xmlns="http://www.w3.org/2000/svg">
<g clip-path="url(#clip0_1757_6401)">
<rect x="2" y="2" width="20" height="20" rx="10" fill="#F93939"/>
<path d="M23.3333 2H0.666667C-0.806093 2 -2 3.19391 -2 4.66667V19.3333C-2 20.8061 -0.806093 22 0.666667 22H23.3333C24.8061 22 26 20.8061 26 19.3333V4.66667C26 3.19391 24.8061 2 23.3333 2Z" fill="#F93939"/>
<path fill-rule="evenodd" clip-rule="evenodd" d="M12 8.10052L10.3288 6.98639L9.21466 8.10052H10.3288L9.21466 9.21466L6.98639 8.10052V13.6712L10.3288 12.5571L9.21466 14.7853H8.10052L9.21466 15.8995L10.3288 14.7853L12 17.0136V8.10052ZM13.6712 6.98639L14.7853 8.10052H13.6712L14.7853 9.21466L17.0136 8.10052V13.6712L13.6712 12.5571L14.7853 14.7853H15.8995L14.7853 15.8995L13.6712 14.7853L12 17.0136V8.10052L13.6712 6.98639Z" fill="#151515"/>
</g>
<defs>
<clipPath id="clip0_1757_6401">
<rect x="2" y="2" width="20" height="20" rx="10" fill="white"/>
</clipPath>
</defs>
</svg>
