<svg width="24" height="24" viewBox="0 0 24 24" fill="none" xmlns="http://www.w3.org/2000/svg">
<rect x="1.5" y="1.5" width="21" height="21" rx="10.5" fill="white"/>
<rect x="1.5" y="1.5" width="21" height="21" rx="10.5" stroke="#EBECF0"/>
<path fill-rule="evenodd" clip-rule="evenodd" d="M16.6666 12C16.6666 14.5773 14.5773 16.6667 12 16.6667C9.42265 16.6667 7.33331 14.5773 7.33331 12C7.33331 10.5067 10.4666 9.88 13.104 10.116C13.384 10.0413 13.6853 10 14 10C15.4733 10 16.6666 10.896 16.6666 12Z" fill="#232C80"/>
<path fill-rule="evenodd" clip-rule="evenodd" d="M11.3333 11.3333C11.3333 11.3333 12.5266 9.99998 14 9.99998C15.4733 9.99998 16.6666 10.896 16.6666 12C16.6666 9.42265 14.5773 7.33331 12 7.33331C10.1373 7.33331 8.52931 8.42398 7.78131 10.0026C7.33331 11.3333 7.33331 11.7226 7.33331 12C7.99998 12.6666 8.74131 12.6666 9.33331 12.6666C9.92531 12.6666 10.4573 12.4093 10.824 12L11.3333 11.3333Z" fill="#F93939"/>
<path fill-rule="evenodd" clip-rule="evenodd" d="M18 8.66667H20.6666L18 6H16.6666L18 8.66667ZM5.99998 8.66667H3.33331L5.99998 6H7.33331L5.99998 8.66667ZM18 15.3333H20.6666L18 18H16.6666L18 15.3333ZM5.99998 15.3333H3.33331L5.99998 18H7.33331L5.99998 15.3333Z" fill="#151515"/>
</svg>
