<svg width="24" height="24" viewBox="0 0 24 24" fill="none" xmlns="http://www.w3.org/2000/svg">
<path d="M21.8539 8.05973C21.7569 6.71273 21.7407 5.31758 20.8995 4.34155C20.2287 3.56274 19.4964 3.14112 18.6238 2.88739C16.979 2.4099 15.5241 2.45196 13.848 2.40438C10.1804 2.30061 6.65948 2.07963 4.39065 3.06493C2.08149 3.82128 1.92669 9.34357 2.06081 11.6742C2.15561 13.3268 2.13182 15.7546 2.85753 17.2978C3.8335 19.3742 6.00136 19.3677 8.05093 19.6183C9.02764 19.7379 11.9856 19.7706 13.0116 19.7741C13.4194 20.4261 14.5523 20.9049 15.0463 21.2027C15.5403 21.501 17.1686 21.9171 17.2879 21.5454C17.4072 21.1738 16.6483 20.434 16.9249 19.3894C18.297 19.1115 18.6952 19.2446 19.6342 18.947C21.0561 18.4969 21.5814 16.8189 21.83 15.0244C22.0593 13.369 21.9734 9.72592 21.8539 8.05973Z" fill="#EE164F"/>
<path d="M11.5269 12.6384C11.6056 13.1973 11.6648 15.6587 11.7493 16.4427C11.7618 16.6103 11.8093 16.7044 11.9783 16.701C12.1127 16.7134 12.3564 16.7196 12.7022 16.7196C13.1114 16.7213 13.5231 16.7095 13.8644 16.7078C14.4505 16.7131 14.1684 15.6108 14.1743 15.0051C14.1178 13.8368 14.0819 10.9556 14.0178 9.63898C14.0091 9.36252 13.9709 7.22059 13.9495 6.73512C13.9385 6.52758 13.9785 6.06115 13.9102 5.91426C13.8281 5.78055 13.4624 5.73946 13.2525 5.75428C12.7108 5.75428 12.2627 5.75988 11.8303 5.83018C11.4449 5.89221 11.2987 6.03944 11.2911 6.37242C11.2887 6.47244 11.2963 7.12539 11.3046 7.81625C11.3118 8.45611 11.3228 9.13533 11.3242 9.49623C11.3101 9.85867 10.6926 9.67146 10.3448 9.71686C9.77492 9.70446 8.33074 9.75244 8.04497 9.76726C7.86983 9.76278 7.85328 9.61279 7.81701 9.44152C7.73706 8.65512 7.64221 7.44295 7.60439 6.61727C7.59121 6.16565 7.56846 5.79055 7.42261 5.76711C7.04793 5.69673 5.3148 5.71982 5.21521 5.90944C5.12793 6.16738 5.15524 6.77613 5.1611 7.21508C5.17937 9.45246 5.37829 12.1668 5.40931 14.3252C5.43205 14.9816 5.4479 16.3335 5.44825 16.4045C5.44997 16.6292 5.47513 16.6889 5.69887 16.7134C6.39739 16.7523 7.25375 16.6985 7.9546 16.7182C8.31523 16.741 8.14112 16.071 8.18213 15.8039C8.18936 15.2068 8.16386 14.2438 8.12044 13.7292C8.09175 12.5539 7.77497 12.5667 8.97129 12.507C9.17952 12.4908 10.1604 12.4563 10.7378 12.4432C11.1085 12.4718 11.3963 12.2922 11.5259 12.6384H11.5269Z" fill="white"/>
<path fill-rule="evenodd" clip-rule="evenodd" d="M18.6012 6.67208C18.526 5.99561 18.023 5.54089 17.3497 5.54089C17.1622 5.54089 16.9694 5.57604 16.7777 5.64505C16.6733 5.68296 16.5774 5.73258 16.493 5.79427C16.4916 5.79496 16.4906 5.79599 16.4892 5.79668C16.0903 6.08426 15.8752 6.56344 15.9283 7.04848C15.978 7.50052 16.2489 7.86314 16.6733 8.04414C16.6747 8.04414 16.6768 8.04552 16.6768 8.04552C16.876 8.12995 17.1212 8.17863 17.3497 8.17863C17.5545 8.17863 17.8476 8.14063 18.0779 7.95971C18.5074 7.62079 18.6639 7.23534 18.6012 6.67208Z" fill="white"/>
<path d="M18.5495 11.4744C18.5495 10.9559 18.5361 10.5874 18.5478 10.0485C18.5923 9.45727 17.9397 9.5834 17.487 9.56548C17.1378 9.56548 16.7919 9.57272 16.4583 9.57246C16.2504 9.58099 16.1538 9.59107 16.1648 9.77026C16.0532 12.0177 16.1504 13.454 16.1114 15.5776C16.0783 17.0194 16.1204 16.5967 17.3802 16.6778C17.6617 16.6823 18.2037 16.7378 18.4216 16.6278C18.5313 16.5537 18.5037 16.434 18.5302 16.2727C18.5182 14.1897 18.5333 14.0235 18.5489 11.4733L18.5495 11.4744Z" fill="white"/>
</svg>
