<svg width="25" height="25" viewBox="0 0 25 25" fill="none" xmlns="http://www.w3.org/2000/svg">
<path d="M5 6C5 4.89543 5.89543 4 7 4H18C19.1046 4 20 4.89543 20 6V21.0133C20 21.4228 19.5346 21.6587 19.2043 21.4165L12.7957 16.7168C12.6197 16.5878 12.3803 16.5878 12.2043 16.7168L5.79568 21.4165C5.46542 21.6587 5 21.4228 5 21.0133V6Z" fill="#D9D9D9"/>
<path d="M5 6C5 4.89543 5.89543 4 7 4H18C19.1046 4 20 4.89543 20 6V21.0133C20 21.4228 19.5346 21.6587 19.2043 21.4165L12.7957 16.7168C12.6197 16.5878 12.3803 16.5878 12.2043 16.7168L5.79568 21.4165C5.46542 21.6587 5 21.4228 5 21.0133V6Z" fill="black"/>
<path d="M5 6C5 4.89543 5.89543 4 7 4H18C19.1046 4 20 4.89543 20 6V21.0133C20 21.4228 19.5346 21.6587 19.2043 21.4165L12.7957 16.7168C12.6197 16.5878 12.3803 16.5878 12.2043 16.7168L5.79568 21.4165C5.46542 21.6587 5 21.4228 5 21.0133V6Z" stroke="black" stroke-width="1.5"/>
</svg>
