<svg width="24" height="24" viewBox="0 0 24 24" fill="none" xmlns="http://www.w3.org/2000/svg">
<path d="M15.331 13.6182C18.2083 13.6182 19.879 14.8256 20.8056 16.1025C21.2572 16.725 21.5186 17.3452 21.6679 17.8086C21.7428 18.0408 21.7909 18.2371 21.8203 18.3789C21.8349 18.4495 21.8447 18.5077 21.8515 18.5498C21.8549 18.5707 21.8575 18.5885 21.8593 18.6016C21.8602 18.6079 21.8607 18.6138 21.8613 18.6182C21.8616 18.6202 21.862 18.6224 21.8623 18.624L21.8632 18.626C21.8598 18.6268 21.811 18.6342 21.1425 18.7148L21.8632 18.6279C21.9128 19.0392 21.6192 19.4133 21.208 19.4629C20.8227 19.509 20.4711 19.2544 20.3877 18.8838L20.374 18.8096C20.3735 18.806 20.3727 18.7984 20.3711 18.7881C20.3676 18.7666 20.3613 18.7308 20.3515 18.6836C20.3316 18.5876 20.2965 18.4434 20.2402 18.2686C20.1267 17.9165 19.9288 17.448 19.5918 16.9834C18.9403 16.0856 17.7158 15.1182 15.331 15.1182C12.9468 15.1183 11.7393 16.0851 11.1025 16.9785C10.7725 17.4416 10.5805 17.9082 10.4716 18.2598C10.4176 18.4343 10.3848 18.578 10.3662 18.6738C10.3569 18.7214 10.3508 18.7578 10.3476 18.7793C10.3464 18.7876 10.3452 18.794 10.3447 18.7979C10.3003 19.2096 9.9312 19.5081 9.51949 19.4639C9.10789 19.4193 8.80913 19.0494 8.85348 18.6377L9.57223 18.7148C8.91495 18.644 8.85909 18.6376 8.85445 18.6367V18.6338C8.85466 18.6322 8.8552 18.6299 8.85543 18.6279C8.85594 18.6236 8.85659 18.6176 8.85738 18.6113C8.85904 18.5983 8.86113 18.5804 8.86422 18.5596C8.87046 18.5175 8.87979 18.4594 8.89351 18.3887C8.9211 18.2467 8.96699 18.0492 9.03902 17.8164C9.18262 17.3525 9.43623 16.7312 9.88082 16.1074C10.7941 14.8262 12.4533 13.6183 15.331 13.6182Z" fill="black"/>
<path d="M7.91988 13.8896C8.83214 13.8897 9.61294 14.0188 10.2802 14.2314C9.79463 14.6114 9.39014 15.0365 9.05465 15.4766C8.71344 15.4213 8.33629 15.3897 7.91988 15.3896C5.73412 15.3897 4.63801 16.2403 4.06637 17.0078C3.76874 17.4074 3.59505 17.8095 3.49703 18.1113C3.4484 18.2611 3.4189 18.3838 3.4023 18.4648C3.39408 18.505 3.3894 18.5353 3.38668 18.5527C3.38541 18.5609 3.38501 18.5669 3.38473 18.5693L3.38375 18.5684C3.33495 18.978 2.96487 19.2714 2.55465 19.2246C2.14342 19.1773 1.84751 18.8058 1.89449 18.3945L2.63961 18.4795C1.921 18.3972 1.89532 18.3951 1.89449 18.3945V18.3926L1.89547 18.3896C1.89557 18.3881 1.89523 18.3857 1.89547 18.3838C1.89599 18.3796 1.89663 18.374 1.89742 18.3682C1.8991 18.3559 1.90223 18.3395 1.90523 18.3203C1.91132 18.2815 1.92041 18.2283 1.93355 18.1641C1.95993 18.0353 2.00233 17.8578 2.07027 17.6484C2.20603 17.2303 2.44603 16.6715 2.86324 16.1113C3.7216 14.9591 5.26646 13.8897 7.91988 13.8896Z" fill="black"/>
<path fill-rule="evenodd" clip-rule="evenodd" d="M7.21187 6.91797C8.10094 6.9181 8.81852 7.29068 9.29195 7.91504C9.74603 8.51425 9.93551 9.2884 9.93551 10.0605C9.93537 10.8326 9.74612 11.606 9.29195 12.2051C8.81852 12.8294 8.10095 13.202 7.21187 13.2021C6.31626 13.2021 5.61526 12.8218 5.16793 12.1797C4.74749 11.5757 4.59578 10.807 4.59566 10.0605C4.59566 9.31383 4.74734 8.54462 5.16793 7.94043C5.61525 7.29803 6.31605 6.91799 7.21187 6.91797ZM7.21187 8.41797C6.78663 8.41799 6.55391 8.57354 6.3984 8.79688C6.2163 9.05841 6.09566 9.48629 6.09566 10.0605C6.09578 10.6344 6.21639 11.0618 6.3984 11.3232C6.55391 11.5463 6.78692 11.7021 7.21187 11.7021C7.64331 11.702 7.91385 11.5399 8.09664 11.2988C8.29858 11.0325 8.43537 10.6089 8.43551 10.0605C8.43551 9.51209 8.29849 9.08782 8.09664 8.82129C7.91385 8.58026 7.64331 8.41809 7.21187 8.41797Z" fill="black"/>
<path fill-rule="evenodd" clip-rule="evenodd" d="M15.332 3.8584C16.6112 3.85855 17.6689 4.38872 18.3935 5.25391C19.1073 6.10645 19.4697 7.24643 19.4697 8.44824C19.4695 9.65016 19.1071 10.7847 18.3916 11.6318C17.6653 12.4914 16.6075 13.0125 15.332 13.0127C14.0545 13.0127 13.0081 12.4896 12.2949 11.625C11.5942 10.7754 11.2501 9.64228 11.25 8.44824C11.25 7.25422 11.594 6.11572 12.2929 5.26074C13.0045 4.39054 14.0507 3.8584 15.332 3.8584ZM15.332 5.3584C14.4997 5.3584 13.88 5.68913 13.4541 6.20996C13.0156 6.74628 12.75 7.52853 12.75 8.44824C12.7501 9.3674 13.0156 10.1416 13.4521 10.6709C13.8763 11.185 14.496 11.5127 15.332 11.5127C16.1697 11.5126 16.8063 11.1833 17.2451 10.6641C17.6943 10.1324 17.9695 9.35934 17.9697 8.44824C17.9697 7.53672 17.6941 6.75548 17.2431 6.2168C16.8027 5.69105 16.166 5.35855 15.332 5.3584Z" fill="black"/>
</svg>
