<svg width="25" height="25" viewBox="0 0 25 25" fill="none" xmlns="http://www.w3.org/2000/svg">
<path d="M12.5 15C14.5711 15 16.25 16.6789 16.25 18.75C16.25 20.8211 14.5711 22.5 12.5 22.5C10.4289 22.5 8.75 20.8211 8.75 18.75C8.75 16.6789 10.4289 15 12.5 15Z" fill="black"/>
<path d="M6.25 8.75C8.32107 8.75 10 10.4289 10 12.5C10 14.5711 8.32107 16.25 6.25 16.25C4.17893 16.25 2.5 14.5711 2.5 12.5C2.5 10.4289 4.17893 8.75 6.25 8.75Z" fill="black"/>
<path d="M18.75 8.75C20.8211 8.75 22.5 10.4289 22.5 12.5C22.5 14.5711 20.8211 16.25 18.75 16.25C16.6789 16.25 15 14.5711 15 12.5C15 10.4289 16.6789 8.75 18.75 8.75Z" fill="black"/>
<path d="M12.5 2.5C14.5711 2.5 16.25 4.17893 16.25 6.25C16.25 8.32107 14.5711 10 12.5 10C10.4289 10 8.75 8.32107 8.75 6.25C8.75 4.17893 10.4289 2.5 12.5 2.5Z" fill="black"/>
</svg>
