<svg width="24" height="24" viewBox="0 0 24 24" fill="none" xmlns="http://www.w3.org/2000/svg">
<path d="M12 14.3799C13.9992 14.3799 15.6201 16.0008 15.6201 18C15.6201 19.9992 13.9992 21.6201 12 21.6201C10.0008 21.6201 8.37995 19.9992 8.37988 18C8.37995 16.0008 10.0008 14.3799 12 14.3799Z" fill="black"/>
<path d="M6 8.37988C7.99918 8.37995 9.62005 10.0008 9.62012 12C9.62005 13.9992 7.99918 15.6201 6 15.6201C4.00082 15.6201 2.37995 13.9992 2.37988 12C2.37995 10.0008 4.00083 8.37995 6 8.37988Z" fill="black"/>
<path d="M18 8.37988C19.9992 8.37995 21.6201 10.0008 21.6201 12C21.6201 13.9992 19.9992 15.6201 18 15.6201C16.0008 15.6201 14.3799 13.9992 14.3799 12C14.3799 10.0008 16.0008 8.37995 18 8.37988Z" fill="black"/>
<path d="M12 2.37988C13.9992 2.37995 15.6201 4.00082 15.6201 6C15.6201 7.99918 13.9992 9.62005 12 9.62012C10.0008 9.62005 8.37995 7.99918 8.37988 6C8.37995 4.00083 10.0008 2.37995 12 2.37988Z" fill="black"/>
</svg>
