<svg width="25" height="25" viewBox="0 0 25 25" fill="none" xmlns="http://www.w3.org/2000/svg">
<path d="M8.98175 14.5C9.60202 14.5 10.1702 14.5464 10.6898 14.6279C8.11858 16.6931 7.80102 19.9905 7.80011 20H2.82843C2.58929 20 2.36069 19.9085 2.20148 19.749C1.96958 19.5164 1.9739 19.2137 2.03937 18.9277C2.06989 18.7945 2.11962 18.6108 2.19855 18.3936C2.35588 17.9604 2.63298 17.382 3.11652 16.8018C4.11022 15.6094 5.89982 14.5001 8.98175 14.5Z" fill="black"/>
<path d="M15.8997 14C16.8058 14 17.7032 14.1555 18.5403 14.457C19.3775 14.7586 20.1379 15.2007 20.7786 15.7578C21.4193 16.315 21.928 16.9761 22.2747 17.7041C22.548 18.2778 22.7165 18.8841 22.7757 19.501C22.802 19.7757 22.5761 19.9999 22.3001 20H9.5003C9.22424 20 8.9975 19.7757 9.02374 19.501C9.08297 18.8841 9.25239 18.2779 9.52569 17.7041C9.8724 16.9763 10.3802 16.3149 11.0208 15.7578C11.6614 15.2008 12.4221 14.7586 13.2591 14.457C14.0962 14.1555 14.9937 14 15.8997 14Z" fill="black"/>
<path d="M7.51202 7.2373C8.42876 7.23738 9.16649 7.62115 9.65362 8.26367C10.1216 8.88098 10.3177 9.67963 10.3177 10.4795C10.3176 11.2791 10.1215 12.0772 9.65362 12.6943C9.16648 13.3367 8.42864 13.7206 7.51202 13.7207C6.58896 13.7206 5.86836 13.3301 5.40851 12.6699C4.97533 12.0478 4.81778 11.2536 4.81769 10.4795C4.81769 9.70525 4.97536 8.91031 5.40851 8.28809C5.86837 7.62799 6.58899 7.23738 7.51202 7.2373Z" fill="black"/>
<path d="M15.97 4.2998C17.2192 4.29982 18.242 4.81483 18.9437 5.65234C19.6381 6.48147 19.9982 7.60136 19.9984 8.79883C19.9984 9.99676 19.6375 11.1111 18.9417 11.9346C18.239 12.7663 17.2169 13.2734 15.97 13.2734C14.7221 13.2734 13.7115 12.7657 13.0228 11.9307C12.3424 11.1056 11.9993 9.99126 11.9993 8.79883C11.9995 7.60672 12.3427 6.48793 13.0218 5.65723C13.7094 4.81625 14.7196 4.29989 15.97 4.2998Z" fill="black"/>
</svg>
