<svg width="25" height="25" viewBox="0 0 25 25" fill="none" xmlns="http://www.w3.org/2000/svg">
<path fill-rule="evenodd" clip-rule="evenodd" d="M12.5 14.75C14.7091 14.75 16.5 16.5409 16.5 18.75C16.5 20.9591 14.7091 22.75 12.5 22.75C10.2909 22.75 8.5 20.9591 8.5 18.75C8.5 16.5409 10.2909 14.75 12.5 14.75ZM12.5 16.25C11.1193 16.25 10 17.3693 10 18.75C10 20.1307 11.1193 21.25 12.5 21.25C13.8807 21.25 15 20.1307 15 18.75C15 17.3693 13.8807 16.25 12.5 16.25Z" fill="black"/>
<path fill-rule="evenodd" clip-rule="evenodd" d="M6.25 8.5C8.45914 8.5 10.25 10.2909 10.25 12.5C10.25 14.7091 8.45914 16.5 6.25 16.5C4.04086 16.5 2.25 14.7091 2.25 12.5C2.25 10.2909 4.04086 8.5 6.25 8.5ZM6.25 10C4.86929 10 3.75 11.1193 3.75 12.5C3.75 13.8807 4.86929 15 6.25 15C7.63071 15 8.75 13.8807 8.75 12.5C8.75 11.1193 7.63071 10 6.25 10Z" fill="black"/>
<path fill-rule="evenodd" clip-rule="evenodd" d="M18.75 8.5C20.9591 8.5 22.75 10.2909 22.75 12.5C22.75 14.7091 20.9591 16.5 18.75 16.5C16.5409 16.5 14.75 14.7091 14.75 12.5C14.75 10.2909 16.5409 8.5 18.75 8.5ZM18.75 10C17.3693 10 16.25 11.1193 16.25 12.5C16.25 13.8807 17.3693 15 18.75 15C20.1307 15 21.25 13.8807 21.25 12.5C21.25 11.1193 20.1307 10 18.75 10Z" fill="black"/>
<path fill-rule="evenodd" clip-rule="evenodd" d="M12.5 2.25C14.7091 2.25 16.5 4.04086 16.5 6.25C16.5 8.45914 14.7091 10.25 12.5 10.25C10.2909 10.25 8.5 8.45914 8.5 6.25C8.5 4.04086 10.2909 2.25 12.5 2.25ZM12.5 3.75C11.1193 3.75 10 4.86929 10 6.25C10 7.63071 11.1193 8.75 12.5 8.75C13.8807 8.75 15 7.63071 15 6.25C15 4.86929 13.8807 3.75 12.5 3.75Z" fill="black"/>
</svg>
