<svg width="25" height="25" viewBox="0 0 25 25" fill="none" xmlns="http://www.w3.org/2000/svg">
<path d="M10.9722 4.19484C11.6401 3.00057 13.3588 3.00081 14.0269 4.19484L22.2818 18.9575C22.9339 20.1239 22.0907 21.5617 20.7545 21.562H4.24469C2.90871 21.5614 2.06527 20.1238 2.71734 18.9575L10.9722 4.19484ZM12.7173 4.92629C12.6217 4.75681 12.3773 4.75657 12.2818 4.92629L4.02691 19.69C3.93388 19.8564 4.05424 20.0614 4.24469 20.062H20.7545C20.9451 20.0617 21.0653 19.8565 20.9722 19.69L12.7173 4.92629ZM12.4996 15.9995C13.0517 15.9995 13.4993 16.4475 13.4996 16.9995C13.4996 17.5518 13.0519 17.9995 12.4996 17.9995C11.9475 17.9993 11.4996 17.5517 11.4996 16.9995C11.4998 16.4476 11.9476 15.9998 12.4996 15.9995ZM12.4996 8.99953C12.9136 8.99953 13.2493 9.33553 13.2496 9.74953V13.7495C13.2496 14.1637 12.9138 14.4995 12.4996 14.4995C12.0856 14.4993 11.7496 14.1636 11.7496 13.7495V9.74953C11.7498 9.33567 12.0857 8.99976 12.4996 8.99953Z" fill="#D9340D"/>
</svg>
