<svg width="24" height="24" viewBox="0 0 24 24" fill="none" xmlns="http://www.w3.org/2000/svg">
<path fill-rule="evenodd" clip-rule="evenodd" d="M18.2402 3.08984C19.7146 3.09005 20.91 4.28539 20.9102 5.75977V18.2402C20.9099 19.7145 19.7145 20.9099 18.2402 20.9102H5.75977C4.2854 20.91 3.09006 19.7146 3.08984 18.2402V5.75977C3.08995 4.28533 4.28534 3.08997 5.75977 3.08984H18.2402ZM4.58984 9.38965V18.2402C4.59005 18.8862 5.11383 19.41 5.75977 19.4102H18.2402C18.8861 19.4099 19.4099 18.8861 19.4102 18.2402V9.38965H4.58984ZM5.75977 4.58984C5.11376 4.58997 4.58995 5.11376 4.58984 5.75977V7.88965H19.4102V5.75977C19.41 5.11381 18.8862 4.59005 18.2402 4.58984H5.75977Z" fill="black"/>
</svg>
