<svg width="25" height="25" viewBox="0 0 25 25" fill="none" xmlns="http://www.w3.org/2000/svg">
<path d="M12.5498 11C12.964 11 13.2998 11.3358 13.2998 11.75V16.25C13.2998 16.6642 12.964 17 12.5498 17C12.1357 16.9999 11.7998 16.6641 11.7998 16.25V11.75C11.7998 11.3359 12.1357 11.0001 12.5498 11Z" fill="black"/>
<path d="M12.5 7C13.0523 7 13.5 7.44772 13.5 8C13.5 8.55228 13.0523 9 12.5 9C11.9477 9 11.5 8.55228 11.5 8C11.5 7.44772 11.9477 7 12.5 7Z" fill="black"/>
<path fill-rule="evenodd" clip-rule="evenodd" d="M12.5 2.25C18.1609 2.25 22.75 6.83908 22.75 12.5C22.75 18.1609 18.1609 22.75 12.5 22.75C6.83908 22.75 2.25 18.1609 2.25 12.5C2.25 6.83908 6.83908 2.25 12.5 2.25ZM12.5 3.75C7.66751 3.75 3.75 7.66751 3.75 12.5C3.75 17.3325 7.66751 21.25 12.5 21.25C17.3325 21.25 21.25 17.3325 21.25 12.5C21.25 7.66751 17.3325 3.75 12.5 3.75Z" fill="black"/>
</svg>
