<svg width="25" height="25" viewBox="0 0 25 25" fill="none" xmlns="http://www.w3.org/2000/svg">
<path fill-rule="evenodd" clip-rule="evenodd" d="M15.7842 8.28125C16.0485 8.20197 16.3352 8.27463 16.5303 8.46973C16.7254 8.66483 16.798 8.95154 16.7188 9.21582L14.0186 18.2158C13.9293 18.513 13.6659 18.7247 13.3564 18.748C13.047 18.7714 12.755 18.6017 12.6221 18.3213L10.7119 14.2871L6.67871 12.3779C6.3983 12.245 6.2286 11.953 6.25195 11.6436C6.27535 11.3341 6.48699 11.0707 6.78418 10.9814L15.7842 8.28125ZM9.08398 11.8574L11.5957 13.0469C11.7522 13.121 11.879 13.2478 11.9531 13.4043L13.1416 15.915L14.8809 10.1182L9.08398 11.8574Z" fill="black"/>
<path fill-rule="evenodd" clip-rule="evenodd" d="M12.5 2.25C18.1609 2.25 22.75 6.83908 22.75 12.5C22.75 18.1609 18.1609 22.75 12.5 22.75C6.83908 22.75 2.25 18.1609 2.25 12.5C2.25 6.83908 6.83908 2.25 12.5 2.25ZM12.5 3.75C7.66751 3.75 3.75 7.66751 3.75 12.5C3.75 17.3325 7.66751 21.25 12.5 21.25C17.3325 21.25 21.25 17.3325 21.25 12.5C21.25 7.66751 17.3325 3.75 12.5 3.75Z" fill="black"/>
</svg>
