<svg width="24" height="24" viewBox="0 0 24 24" fill="none" xmlns="http://www.w3.org/2000/svg">
<path d="M21.1201 15.5703C21.5342 15.5704 21.8701 15.9062 21.8701 16.3203C21.8699 16.7343 21.5341 17.0702 21.1201 17.0703H2.87988C2.46585 17.0702 2.13008 16.7343 2.12988 16.3203C2.12988 15.9061 2.46573 15.5704 2.87988 15.5703H21.1201Z" fill="black"/>
<path d="M21.1201 10.7695C21.5341 10.7697 21.8699 11.1056 21.8701 11.5195C21.8701 11.9337 21.5342 12.2694 21.1201 12.2695L2.87988 12.2705C2.46589 12.2704 2.13015 11.9345 2.12988 11.5205C2.12988 11.1063 2.46573 10.7706 2.87988 10.7705L21.1201 10.7695Z" fill="black"/>
<path d="M21.1201 5.96973C21.5341 5.96985 21.87 6.3057 21.8701 6.71973C21.8701 7.13386 21.5342 7.4696 21.1201 7.46973H2.87988C2.46573 7.46966 2.12988 7.1339 2.12988 6.71973C2.13001 6.30567 2.46581 5.96979 2.87988 5.96973H21.1201Z" fill="black"/>
</svg>
