<svg width="25" height="25" viewBox="0 0 25 25" fill="none" xmlns="http://www.w3.org/2000/svg">
<path d="M20.5092 14.6461C20.8462 14.4055 21.3144 14.484 21.5551 14.8209C21.7955 15.1579 21.718 15.6261 21.3813 15.8668L13.0532 21.8151C12.7056 22.0629 12.2385 22.0631 11.8911 21.8151L3.5639 15.8668C3.22699 15.6261 3.1495 15.1579 3.39008 14.8209C3.63085 14.484 4.09896 14.4054 4.43597 14.6461L12.4731 20.3864L20.5092 14.6461ZM12.0268 2.61682C12.3539 2.45389 12.7499 2.48059 13.0541 2.69788L21.0961 8.44299L21.1938 8.52209C21.652 8.94324 21.6195 9.69593 21.0961 10.0699L13.0532 15.8151C12.7057 16.0628 12.2394 16.0628 11.892 15.8151L3.84906 10.0699C3.29117 9.671 3.29185 8.8417 3.85004 8.44299L11.8911 2.69885L12.0268 2.61682Z" fill="black"/>
</svg>
