<svg width="25" height="25" viewBox="0 0 25 25" fill="none" xmlns="http://www.w3.org/2000/svg">
<path d="M13.7497 18.25C14.164 18.25 14.4997 18.5858 14.4997 19C14.4997 19.4142 14.164 19.75 13.7497 19.75H11.2497C10.8356 19.7499 10.4997 19.4141 10.4997 19C10.4997 18.5859 10.8356 18.2501 11.2497 18.25H13.7497Z" fill="black"/>
<path fill-rule="evenodd" clip-rule="evenodd" d="M17.2497 2.5C18.3543 2.5 19.2497 3.39543 19.2497 4.5V20.5L19.239 20.7041C19.1435 21.6456 18.3954 22.3938 17.4538 22.4893L17.2497 22.5H7.74974L7.54564 22.4893C6.60421 22.3937 5.85593 21.6456 5.76049 20.7041L5.74974 20.5V4.5C5.74974 3.39552 6.64529 2.50014 7.74974 2.5H17.2497ZM7.74974 4C7.47372 4.00014 7.24974 4.22394 7.24974 4.5V20.5C7.24974 20.7761 7.47372 20.9999 7.74974 21H17.2497C17.5259 21 17.7497 20.7761 17.7497 20.5V4.5C17.7497 4.22386 17.5259 4 17.2497 4H7.74974Z" fill="black"/>
<path d="M4.32885 9.46484C3.93033 10.4721 3.73354 11.5478 3.75072 12.6309C3.76796 13.7141 3.99801 14.7841 4.42845 15.7783L3.05248 16.374C2.54378 15.1991 2.27111 13.9354 2.25072 12.6553C2.23035 11.3753 2.4624 10.1035 2.93334 8.91309L4.32885 9.46484Z" fill="black"/>
<path d="M21.9968 8.74219C22.4903 9.92367 22.746 11.1913 22.7497 12.4717C22.7535 13.752 22.5048 15.0208 22.0183 16.2051L20.6306 15.6348C21.0423 14.6326 21.2529 13.559 21.2497 12.4756C21.2465 11.3923 21.0296 10.32 20.612 9.32031L21.9968 8.74219Z" fill="black"/>
</svg>
