<svg width="25" height="25" viewBox="0 0 25 25" fill="none" xmlns="http://www.w3.org/2000/svg">
<path fill-rule="evenodd" clip-rule="evenodd" d="M12.4995 8.75C14.5706 8.75 16.2495 10.4289 16.2495 12.5C16.2495 14.5711 14.5706 16.25 12.4995 16.25C10.4287 16.2497 8.74952 14.5709 8.74952 12.5C8.74952 10.4291 10.4287 8.75026 12.4995 8.75ZM12.4995 10.25C11.2571 10.2503 10.2495 11.2575 10.2495 12.5C10.2495 13.7425 11.2571 14.7497 12.4995 14.75C13.7422 14.75 14.7495 13.7426 14.7495 12.5C14.7495 11.2574 13.7422 10.25 12.4995 10.25Z" fill="black"/>
<path fill-rule="evenodd" clip-rule="evenodd" d="M12.9614 2.14941C14.4816 2.14941 15.7114 3.38591 15.7114 4.90332C15.7119 5.86141 16.7434 6.46372 17.5737 5.99805L17.7251 5.91309C19.0268 5.18243 20.6739 5.62373 21.436 6.90723L21.8667 7.63281C22.6481 8.94914 22.1928 10.651 20.8579 11.4004C20.0248 11.8684 20.0239 13.0689 20.8579 13.5371C22.1935 14.2866 22.6502 15.9897 21.8677 17.3066L21.437 18.0312C20.6746 19.3139 19.0283 19.7548 17.7271 19.0244L17.5737 18.9385C16.7441 18.4727 15.7115 19.0755 15.7114 20.0352C15.7112 21.5519 14.4819 22.7891 12.9614 22.7891H12.0405C10.5201 22.7889 9.29095 21.5514 9.29053 20.0352C9.29053 19.075 8.2575 18.472 7.42823 18.9375L7.27393 19.0244C5.97255 19.7547 4.32522 19.3142 3.56299 18.0312L3.13233 17.3057C2.35059 15.9891 2.80756 14.2866 4.1421 13.5371C4.97596 13.0687 4.97518 11.8688 4.1421 11.4014C2.80733 10.6522 2.35197 8.94996 3.13331 7.63379L3.56397 6.9082C4.326 5.62515 5.97245 5.18405 7.27393 5.91406L7.4292 6.00098C8.25862 6.46603 9.2901 5.86338 9.29053 4.9043C9.29053 3.38746 10.52 2.14958 12.0405 2.14941H12.9614ZM12.0405 3.65039C11.3522 3.65055 10.7905 4.21219 10.7905 4.9043C10.7901 7.0018 8.53137 8.33908 6.69483 7.30859L6.54053 7.22266C5.94899 6.89076 5.20046 7.09071 4.85401 7.67383L4.42335 8.39941C4.07241 8.99091 4.27671 9.75607 4.87647 10.0928C6.73185 11.1339 6.73055 13.8048 4.87647 14.8457C4.27625 15.183 4.07102 15.9485 4.42237 16.54L4.85303 17.2646C5.19947 17.8477 5.94808 18.0485 6.53956 17.7168L6.69385 17.6299C8.53096 16.5986 10.7905 17.9375 10.7905 20.0352C10.791 20.7271 11.3526 21.2889 12.0405 21.2891H12.9614C13.6498 21.2891 14.2112 20.7271 14.2114 20.0352C14.2115 17.9371 16.4714 16.5997 18.3081 17.6309L18.4605 17.7168C19.0517 18.0487 19.8002 17.8482 20.147 17.2656L20.5786 16.54C20.9299 15.9481 20.7242 15.1828 20.1235 14.8457C18.2691 13.8048 18.2686 11.1343 20.1235 10.0928C20.7236 9.75598 20.9288 8.99021 20.5776 8.39844L20.146 7.67285C19.7996 7.08946 19.0511 6.88862 18.4595 7.2207L18.3071 7.30566C16.4716 8.33547 14.2119 7.00188 14.2114 4.90332C14.2114 4.21159 13.6504 3.65039 12.9614 3.65039H12.0405Z" fill="black"/>
</svg>
