<svg width="25" height="25" viewBox="0 0 25 25" fill="none" xmlns="http://www.w3.org/2000/svg">
<path fill-rule="evenodd" clip-rule="evenodd" d="M11.5 3.25C16.0563 3.25 19.75 6.94365 19.75 11.5C19.75 13.5081 19.0314 15.3477 17.8389 16.7783L21.5303 20.4697C21.8232 20.7626 21.8232 21.2374 21.5303 21.5303C21.2374 21.8232 20.7626 21.8232 20.4697 21.5303L16.7783 17.8389C15.3477 19.0314 13.5081 19.75 11.5 19.75C6.94365 19.75 3.25 16.0563 3.25 11.5C3.25 6.94365 6.94365 3.25 11.5 3.25ZM11.5 4.75C7.77208 4.75 4.75 7.77208 4.75 11.5C4.75 15.2279 7.77208 18.25 11.5 18.25C15.2279 18.25 18.25 15.2279 18.25 11.5C18.25 7.77208 15.2279 4.75 11.5 4.75Z" fill="black"/>
</svg>
