<svg width="20" height="20" viewBox="0 0 20 20" fill="none" xmlns="http://www.w3.org/2000/svg">
<path d="M10.75 5.75C10.75 6.30228 10.3023 6.75 9.75 6.75C9.19771 6.75 8.75 6.30228 8.75 5.75C8.75 5.19772 9.19771 4.75 9.75 4.75C10.3023 4.75 10.75 5.19772 10.75 5.75Z" fill="#697687"/>
<path d="M10.5 9.25C10.5 8.83579 10.1642 8.5 9.75 8.5C9.33579 8.5 9 8.83579 9 9.25V13.75C9 14.1642 9.33579 14.5 9.75 14.5C10.1642 14.5 10.5 14.1642 10.5 13.75V9.25Z" fill="#697687"/>
<path fill-rule="evenodd" clip-rule="evenodd" d="M0 9.75C0 4.36522 4.36522 0 9.75 0C15.1348 0 19.5 4.36522 19.5 9.75C19.5 15.1348 15.1348 19.5 9.75 19.5C4.36522 19.5 0 15.1348 0 9.75ZM9.75 1.5C5.19365 1.5 1.5 5.19365 1.5 9.75C1.5 14.3063 5.19365 18 9.75 18C14.3063 18 18 14.3063 18 9.75C18 5.19365 14.3063 1.5 9.75 1.5Z" fill="#697687"/>
</svg>
