<svg width="25" height="25" viewBox="0 0 25 25" fill="none" xmlns="http://www.w3.org/2000/svg">
<path d="M20.5095 14.6461C20.8465 14.4056 21.3147 14.484 21.5554 14.8209C21.7957 15.1578 21.7182 15.6261 21.3815 15.8668L13.0534 21.8151C12.7059 22.063 12.2388 22.0631 11.8913 21.8151L3.56417 15.8668C3.22718 15.6261 3.14968 15.158 3.39034 14.8209C3.63111 14.484 4.09922 14.4054 4.43624 14.6461L12.4733 20.3864L20.5095 14.6461Z" fill="black"/>
<path fill-rule="evenodd" clip-rule="evenodd" d="M12.0271 2.61682C12.3541 2.45389 12.7502 2.48058 13.0544 2.69788L21.0964 8.44299L21.194 8.5221C21.6522 8.9432 21.6196 9.6959 21.0964 10.0699L13.0534 15.8151C12.7059 16.063 12.2388 16.0631 11.8913 15.8151L3.84932 10.0699C3.29134 9.67111 3.29134 8.84182 3.84932 8.44299L11.8913 2.69885L12.0271 2.61682ZM5.29073 9.25647L12.4733 14.3864L19.655 9.25549L12.4724 4.12561L5.29073 9.25647Z" fill="black"/>
</svg>
