<svg width="24" height="24" viewBox="0 0 24 24" fill="none" xmlns="http://www.w3.org/2000/svg">
<path d="M8.69206 16.8572H15.7423C16.2404 16.8572 16.8128 16.2432 16.8225 15.7434V8.25851C16.7428 7.69518 16.3131 7.24695 15.7436 7.17601L8.2245 7.17764C7.71563 7.20956 7.14328 7.77971 7.14328 8.2905V15.1793H2.01288V7.09695C2.27521 4.27201 4.61065 2.15437 7.4162 2.01336C9.52518 1.9072 11.7219 2.0966 13.8398 2.01336C14.4955 2.05821 14.9537 2.32699 15.3073 2.86906C15.9394 3.83771 16.4395 4.9783 17.0435 5.97279C17.2662 6.33962 17.5334 6.67489 18.0006 6.72586C18.8544 6.81877 19.8717 6.6591 20.7449 6.7243C21.4483 6.77683 21.9339 7.22378 21.9871 7.93426V16.2936C21.9445 16.8721 21.4967 17.388 20.9062 17.439C20.0404 17.5135 19.0683 17.3729 18.1951 17.4383C17.665 17.478 17.3679 17.6687 17.0878 18.1056C16.4715 19.0672 15.9998 20.22 15.3777 21.171C15.1121 21.5768 14.5384 22.0199 14.0325 22.0199H8.70849L8.69206 16.8572Z" fill="black"/>
</svg>
