<svg width="32" height="32" viewBox="0 0 32 32" fill="none" xmlns="http://www.w3.org/2000/svg">
<g opacity="0.2">
<path d="M5.23147 19.4051C5.13362 19.5227 5.06402 19.6611 5.02805 19.8097C4.99208 19.9584 4.99069 20.1133 5.02398 20.2626L6.56895 27.2162C6.60578 27.382 6.68424 27.5357 6.79693 27.6628C6.90963 27.7899 7.05283 27.8862 7.21305 27.9426C7.37327 27.999 7.54522 28.0137 7.71267 27.9852C7.88013 27.9568 8.03758 27.8861 8.17016 27.78L11.8513 25C9.58763 21.1788 8.87515 17.7814 9.02015 14.864L5.23147 19.4051Z" fill="#008194"/>
<path d="M22.9799 14.864C23.1311 17.7814 22.4124 21.1788 20.1487 25L23.8298 27.78C23.9624 27.8861 24.1199 27.9568 24.2873 27.9852C24.4548 28.0137 24.6267 27.999 24.7869 27.9426C24.9472 27.8862 25.0904 27.7899 25.2031 27.6628C25.3158 27.5357 25.3942 27.382 25.4311 27.2162L26.976 20.2626C27.0093 20.1133 27.0079 19.9584 26.9719 19.8097C26.936 19.6611 26.8664 19.5227 26.7685 19.4051L22.9799 14.864Z" fill="#008194"/>
</g>
<path d="M16 15.0002C16.8284 15.0002 17.5 14.3287 17.5 13.5003C17.5 12.6719 16.8284 12.0003 16 12.0003C15.1716 12.0003 14.5 12.6719 14.5 13.5003C14.5 14.3287 15.1716 15.0002 16 15.0002Z" fill="#008194"/>
<path fill-rule="evenodd" clip-rule="evenodd" d="M13.2088 29C13.2088 28.563 13.5631 28.2088 14 28.2088H18C18.4369 28.2088 18.7912 28.563 18.7912 29C18.7912 29.4369 18.4369 29.7912 18 29.7912H14C13.5631 29.7912 13.2088 29.4369 13.2088 29Z" fill="#008194"/>
<path fill-rule="evenodd" clip-rule="evenodd" d="M16 13.4179C15.9545 13.4179 15.9176 13.4548 15.9176 13.5003C15.9176 13.5458 15.9545 13.5827 16 13.5827C16.0455 13.5827 16.0824 13.5458 16.0824 13.5003C16.0824 13.4548 16.0455 13.4179 16 13.4179ZM17.5 13.5003C17.5 14.3287 16.8284 15.0002 16 15.0002C15.1716 15.0002 14.5 14.3287 14.5 13.5003C14.5 12.6719 15.1716 12.0003 16 12.0003C16.8284 12.0003 17.5 12.6719 17.5 13.5003Z" fill="#008194"/>
<path fill-rule="evenodd" clip-rule="evenodd" d="M16 3.7912C15.9536 3.7912 15.9085 3.80666 15.8719 3.83515L15.87 3.83659C14.7273 4.71947 12.1731 7.0405 10.7673 10.5628C9.4107 13.962 9.09057 18.5556 12.3068 24.2089H19.6932C22.9094 18.5556 22.5893 13.962 21.2327 10.5628C19.8269 7.0405 17.2727 4.71947 16.13 3.83659L16.1281 3.83515C16.0915 3.80666 16.0464 3.7912 16 3.7912ZM14.9025 2.58441C15.2165 2.34096 15.6026 2.20881 16 2.20881C16.3978 2.20881 16.7842 2.34121 17.0984 2.58513C18.3586 3.55898 21.1514 6.09006 22.7024 9.9763C24.272 13.9093 24.535 19.1499 20.8293 25.4034C20.6869 25.6438 20.4281 25.7912 20.1487 25.7912H11.8513C11.5719 25.7912 11.3131 25.6438 11.1707 25.4034C7.46504 19.1499 7.728 13.9093 9.29763 9.9763C10.849 6.08911 13.6428 3.55773 14.9025 2.58441Z" fill="#008194"/>
<path fill-rule="evenodd" clip-rule="evenodd" d="M22.4732 14.2525C22.8089 13.9727 23.3078 14.018 23.5876 14.3536L27.3763 18.8985C27.5515 19.1091 27.6765 19.3574 27.7409 19.6237C27.8053 19.8898 27.8079 20.167 27.7484 20.4342L26.2034 27.3878C26.1374 27.6848 25.9969 27.9601 25.795 28.1878C25.5932 28.4154 25.3367 28.5879 25.0497 28.6889C24.7627 28.79 24.4547 28.8162 24.1548 28.7653C23.8591 28.715 23.5808 28.5913 23.3454 28.4056L19.6719 25.6314C19.3232 25.3681 19.2539 24.8719 19.5173 24.5232C19.7806 24.1745 20.2768 24.1053 20.6255 24.3687L24.3066 27.1486C24.3126 27.1531 24.3185 27.1577 24.3244 27.1624C24.352 27.1845 24.3849 27.1993 24.4199 27.2052C24.4548 27.2112 24.4907 27.2081 24.5242 27.1963C24.5577 27.1846 24.5876 27.1645 24.6111 27.1379C24.6346 27.1114 24.651 27.0793 24.6587 27.0447L26.2037 20.091C26.2106 20.0599 26.2105 20.0269 26.2029 19.9959C26.1954 19.9649 26.1809 19.936 26.1605 19.9115L22.3721 15.3669C22.0923 15.0312 22.1376 14.5323 22.4732 14.2525Z" fill="#008194"/>
<path fill-rule="evenodd" clip-rule="evenodd" d="M9.52676 14.2525C9.8624 14.5323 9.90767 15.0312 9.62788 15.3669L5.83952 19.9114C5.81912 19.9359 5.80455 19.9649 5.79705 19.9959C5.78954 20.0269 5.78925 20.0592 5.7962 20.0904L7.34131 27.0446C7.349 27.0793 7.36539 27.1114 7.38892 27.1379C7.41245 27.1645 7.44235 27.1846 7.4758 27.1963C7.50925 27.2081 7.54515 27.2112 7.58011 27.2052C7.61508 27.1993 7.64795 27.1846 7.67563 27.1624C7.68148 27.1577 7.68739 27.1531 7.69336 27.1486L11.3745 24.3687C11.7232 24.1053 12.2194 24.1745 12.4827 24.5232C12.7461 24.8719 12.6768 25.3681 12.3281 25.6314L8.65462 28.4056C8.41924 28.5913 8.14095 28.715 7.84523 28.7653C7.54528 28.8162 7.23729 28.79 6.95031 28.6889C6.66332 28.5879 6.40681 28.4154 6.20495 28.1878C6.0031 27.9601 5.86256 27.6848 5.79659 27.3878L4.25176 20.4349C4.19226 20.1677 4.19467 19.8898 4.25905 19.6237C4.32349 19.3574 4.44814 19.1095 4.62343 18.8989L8.41242 14.3536C8.69221 14.018 9.19112 13.9727 9.52676 14.2525Z" fill="#008194"/>
</svg>
