<svg width="24" height="24" viewBox="0 0 24 24" fill="none" xmlns="http://www.w3.org/2000/svg">
<path d="M8.90166 4.81754C6.77633 4.81754 5.34239 6.40511 5.34239 8.76088C5.34239 11.3215 7.67258 13.7797 10.3612 16.6476L11.9744 18.3632L13.5876 16.6476C16.2762 13.8053 18.6064 11.3471 18.6064 8.76088C18.6064 6.40511 17.1724 4.81754 15.0471 4.81754C14.1509 4.81754 13.2803 5.2016 12.6401 5.91857L11.9488 6.6612L11.2574 5.91857C10.6684 5.2016 9.82349 4.81754 8.90166 4.81754ZM12 21.1798L9.05529 18.0559C6.05936 14.9064 3.47314 12.1665 3.47314 8.76088C3.47314 5.32965 5.77768 2.82025 8.92724 2.82025C10.0539 2.82025 11.1037 3.20434 12 3.8957C12.8962 3.20434 13.9716 2.82025 15.0727 2.82025C18.2223 2.82025 20.5268 5.32965 20.5268 8.76088C20.5268 12.1665 17.9406 14.9064 14.9447 18.0559L12 21.1798Z" fill="#F0AB00"/>
</svg>
