<svg width="24" height="24" viewBox="0 0 24 24" fill="none" xmlns="http://www.w3.org/2000/svg">
<path d="M7.6847 5.18053C7.6847 6.34335 6.74991 7.30182 5.58146 7.30182C4.42854 7.30182 3.47823 6.35901 3.47823 5.18053C3.47823 4.01779 4.41302 3.05927 5.58146 3.05927C6.73431 3.05927 7.6847 4.01779 7.6847 5.18053Z" fill="#2CD5C4"/>
<path d="M20.5218 5.18053C20.5218 6.34326 19.5871 7.30182 18.4185 7.30182C17.2657 7.30182 16.3309 6.34326 16.3309 5.18053C16.3309 4.01771 17.2657 3.0592 18.4341 3.0592C19.5871 3.0592 20.5218 4.01771 20.5218 5.18053Z" fill="#2CD5C4"/>
<path d="M12.0004 20.9408C7.35767 20.9408 3.58746 17.1382 3.58746 12.4556V11.1043C3.58746 10.0044 4.47552 9.1087 5.56603 9.1087C6.65662 9.1087 7.54468 10.0044 7.54468 11.1043V12.5027C7.54468 14.9698 8.99352 16.9811 11.9848 16.9811C14.7736 16.9811 16.4249 14.9698 16.4249 12.5027V11.1043C16.4249 10.0044 17.313 9.1087 18.4036 9.1087C19.4942 9.1087 20.3822 10.0044 20.3822 11.1043V12.4556C20.4134 17.1382 16.6431 20.9408 12.0004 20.9408Z" fill="#005857"/>
</svg>
