<svg width="24" height="24" viewBox="0 0 24 24" fill="none" xmlns="http://www.w3.org/2000/svg">
<path d="M14.6178 12.485C15.2734 11.3424 15.6073 10.3259 15.5943 9.54079C15.5786 8.57624 15.1908 7.8579 14.6178 7.38235C12.895 5.95239 9.50185 6.71528 9.54761 9.58531C9.56466 10.6686 10.0973 12.0709 11.4815 13.7612C11.4815 13.7612 12.2531 13.0793 12.4231 12.4668C8.74728 7.5321 16.4738 7.26366 12.6293 12.7346C12.6293 12.7346 12.1855 13.4482 11.6194 13.9271C10.421 15.0435 9.3359 15.3962 8.38877 15.2431C5.10283 14.7109 4.57839 9.86727 4.33462 6.98778H1.92206C1.92069 7.01813 1.92069 7.0505 1.92001 7.08289V7.62181C2.04635 13.3363 6.14012 21.286 12.6833 15.0327C13.3313 14.3912 13.7001 13.8806 13.7001 13.8806C14.0545 13.4003 14.3604 12.9329 14.6178 12.485Z" fill="#00544C"/>
<path d="M20.2256 9.76879C20.2044 9.84165 20.1886 9.91921 20.1777 10.0008C19.7366 13.3565 17.7693 16.1921 14.8009 14.6307C14.7422 14.7109 14.6807 14.7892 14.6172 14.8647C14.3201 15.2175 13.9794 15.517 13.6673 15.7544C13.6598 15.7497 13.6503 15.7456 13.6407 15.7436C13.9678 15.946 14.2935 16.1072 14.6172 16.2306C18.2814 17.6302 21.6253 14.1706 21.947 9.84568L20.2256 9.76879Z" fill="#00544C"/>
</svg>
