<svg width="25" height="25" viewBox="0 0 25 25" fill="none" xmlns="http://www.w3.org/2000/svg">
<path d="M20.5095 14.6461C20.8465 14.4056 21.3147 14.484 21.5554 14.8209C21.7957 15.1578 21.7182 15.6261 21.3816 15.8668L13.0534 21.815C12.7059 22.063 12.2388 22.0631 11.8913 21.815L3.56418 15.8668C3.22719 15.6261 3.1497 15.1579 3.39035 14.8209C3.63112 14.484 4.09924 14.4054 4.43625 14.6461L12.4734 20.3863L20.5095 14.6461Z" fill="black"/>
<path fill-rule="evenodd" clip-rule="evenodd" d="M12.0271 2.61681C12.3541 2.45387 12.7502 2.48057 13.0544 2.69786L21.0964 8.44298L21.1941 8.52208C21.6522 8.94318 21.6196 9.69588 21.0964 10.0699L13.0534 15.815C12.7059 16.063 12.2388 16.0631 11.8913 15.815L3.84934 10.0699C3.29136 9.6711 3.29135 8.84181 3.84934 8.44298L11.8913 2.69884L12.0271 2.61681ZM5.29074 9.25646L12.4734 14.3863L19.655 9.25548L12.4724 4.1256L5.29074 9.25646Z" fill="black"/>
</svg>
