<svg width="24" height="24" viewBox="0 0 24 24" fill="none" xmlns="http://www.w3.org/2000/svg">
<path d="M15.249 8.8885C14.2817 8.43978 13.1964 8.21189 12.0132 8.21189C10.6448 8.21189 9.40827 8.51572 8.33364 9.11581C7.25777 9.71583 6.4053 10.5444 5.80147 11.577C5.19639 12.6095 4.89008 13.7877 4.89008 15.0789C4.89008 16.3518 5.19639 17.5251 5.80022 18.5664C6.40165 19.606 7.27909 20.4587 8.33555 21.0301C9.40885 21.6202 10.6454 21.9183 12.0138 21.9183C13.3803 21.9183 14.6181 21.6195 15.6915 21.0301C16.7686 20.4376 17.6185 19.6078 18.2149 18.5645C18.7528 17.6204 19.0497 16.5684 19.1005 15.4298H19.1099V2.08179L15.2496 3.35225L15.249 8.8885ZM14.2409 12.5605C14.8467 13.2196 15.1404 14.0438 15.1404 15.0795C15.1404 16.0976 14.8453 16.9124 14.2409 17.5715C13.644 18.2218 12.9146 18.5381 12.0132 18.5381C11.0942 18.5381 10.3623 18.2231 9.77418 17.5721C9.17599 16.913 8.88536 16.0971 8.88536 15.0783C8.88536 14.0426 9.17599 13.2191 9.77418 12.5581C10.363 11.9084 11.0949 11.5914 12.0132 11.5914C12.9146 11.5926 13.6427 11.9097 14.2409 12.5605Z" fill="url(#paint0_linear_4426_4730)"/>
<defs>
<linearGradient id="paint0_linear_4426_4730" x1="12" y1="2.08179" x2="12" y2="21.9183" gradientUnits="userSpaceOnUse">
<stop stop-color="#3067DB"/>
<stop offset="1" stop-color="#61ACEF"/>
</linearGradient>
</defs>
</svg>
