<svg width="25" height="25" viewBox="0 0 25 25" fill="none" xmlns="http://www.w3.org/2000/svg">
<path d="M14.2699 20.333C14.546 20.0245 15.0208 19.9985 15.3294 20.2744C15.6376 20.5506 15.6639 21.0245 15.388 21.333C14.6796 22.1245 13.647 22.625 12.4994 22.625C11.3519 22.6248 10.32 22.1244 9.61166 21.333C9.33581 21.0244 9.36188 20.5506 9.67025 20.2744C9.97877 19.9983 10.4526 20.0247 10.7288 20.333C11.1647 20.8199 11.7963 21.1248 12.4994 21.125C13.2026 21.125 13.8339 20.82 14.2699 20.333Z" fill="black"/>
<path fill-rule="evenodd" clip-rule="evenodd" d="M12.5003 2.375C16.3979 2.37518 19.6066 5.44136 19.7835 9.33496L19.9124 12.1816C19.9762 13.5825 20.4441 14.935 21.2591 16.0762L21.3109 16.1484C22.1568 17.333 21.3102 18.9789 19.8548 18.9795H5.14584C3.69016 18.9792 2.84362 17.3331 3.68978 16.1484L3.74154 16.0762C4.55652 14.9351 5.02448 13.5824 5.08822 12.1816L5.21713 9.33496C5.39412 5.44126 8.60261 2.375 12.5003 2.375ZM12.5003 3.875C9.40464 3.875 6.85687 6.30989 6.71615 9.40234L6.58627 12.249C6.50945 13.9391 5.94555 15.5715 4.96224 16.9482L4.91049 17.0205C4.77346 17.2123 4.91022 17.4792 5.14584 17.4795H19.8548C20.0902 17.4789 20.2269 17.2122 20.0902 17.0205L20.0384 16.9482C19.055 15.5715 18.4912 13.9392 18.4144 12.249L18.2845 9.40234C18.1438 6.31 15.5959 3.87518 12.5003 3.875Z" fill="black"/>
<path d="M19.974 4.99219C20.3256 4.77363 20.7884 4.88183 21.0072 5.2334C21.9183 6.69796 22.4242 8.37842 22.474 10.1025C22.4858 10.5163 22.1602 10.8609 21.7464 10.873C21.3326 10.8849 20.9871 10.5593 20.9749 10.1455C20.9327 8.68676 20.5046 7.26453 19.7337 6.02539C19.515 5.6737 19.6223 5.21098 19.974 4.99219Z" fill="black"/>
<path d="M4.00424 5.13184C4.22722 4.78328 4.68959 4.68095 5.03842 4.90332C5.38739 5.12645 5.49006 5.59145 5.26693 5.94043C4.48098 7.16995 4.03409 8.58592 3.97396 10.0439C3.95685 10.4577 3.60848 10.7797 3.19467 10.7627C2.78092 10.7456 2.45902 10.3961 2.47592 9.98242C2.54697 8.25893 3.07503 6.58512 4.00424 5.13184Z" fill="black"/>
</svg>
