<svg width="24" height="24" viewBox="0 0 24 24" fill="none" xmlns="http://www.w3.org/2000/svg">
<g clip-path="url(#clip0_1768_6097)">
<rect x="2" y="5" width="20" height="14" rx="3" fill="#1A47B8"/>
<path fill-rule="evenodd" clip-rule="evenodd" d="M2 14.3333H22V19H2V14.3333Z" fill="white"/>
<path fill-rule="evenodd" clip-rule="evenodd" d="M2 5H22V9.66667H2V5ZM9.61905 14.3333V9.66667H5.80952V14.3333C5.80952 15.3647 6.6619 16.2 7.71429 16.2C8.76667 16.2 9.61905 15.3647 9.61905 14.3333Z" fill="#F93939"/>
<path fill-rule="evenodd" clip-rule="evenodd" d="M6.76195 10.6L5.80957 11.5333L7.71433 12.4667L6.76195 14.3333L7.71433 16.2L8.66671 14.3333L7.71433 12.4667L9.61909 11.5333L8.66671 10.6L7.71433 11.5333L6.76195 10.6Z" fill="white"/>
<path fill-rule="evenodd" clip-rule="evenodd" d="M7.71433 12.4667L5.80957 13.4H9.61909L7.71433 12.4667Z" fill="#88605F"/>
<path fill-rule="evenodd" clip-rule="evenodd" d="M6.76195 10.6H5.80957V11.5333L6.76195 10.6ZM8.66671 10.6H9.61909V11.5333L8.66671 10.6Z" fill="#FFDA2C"/>
<path fill-rule="evenodd" clip-rule="evenodd" d="M6.76195 9.66665L5.80957 8.73332C5.80957 8.73332 6.76195 7.79999 7.71433 7.79999C8.66671 7.79999 9.61909 8.73332 9.61909 8.73332L8.66671 9.66665H6.76195Z" fill="#FFDA2C"/>
<path fill-rule="evenodd" clip-rule="evenodd" d="M7.71434 7.79999L6.76196 8.73332L7.71434 9.66665L8.66672 8.73332L7.71434 7.79999Z" fill="#A75835"/>
</g>
<defs>
<clipPath id="clip0_1768_6097">
<rect x="2" y="5" width="20" height="14" rx="3" fill="white"/>
</clipPath>
</defs>
</svg>
