<svg width="16" height="16" viewBox="0 0 16 16" fill="none" xmlns="http://www.w3.org/2000/svg">
<path d="M11.8831 6.76697C11.8831 4.60396 10.13 2.85015 7.96704 2.84998C5.80393 2.84998 4.05005 4.60385 4.05005 6.76697C4.05018 8.44301 5.06472 10.1009 6.19946 11.4086C6.75441 12.0481 7.31192 12.5732 7.73071 12.9388C7.81439 13.0119 7.89501 13.0756 7.96606 13.1351C8.03732 13.0754 8.11842 13.0122 8.20239 12.9388C8.62118 12.5732 9.17866 12.0481 9.73364 11.4086C10.8684 10.1008 11.8829 8.44302 11.8831 6.76697ZM13.3831 6.76697C13.3829 9.00124 12.0649 11.0099 10.8665 12.391C10.2548 13.0959 9.6449 13.6704 9.18872 14.0687C8.96014 14.2683 8.76878 14.4249 8.63306 14.5326C8.56526 14.5864 8.51178 14.6287 8.47388 14.6576C8.45496 14.672 8.43957 14.6829 8.42896 14.6908C8.42364 14.6948 8.41938 14.6983 8.41626 14.7006C8.41475 14.7017 8.41333 14.7028 8.41235 14.7035L8.41138 14.7045C8.18032 14.8739 7.87546 14.8951 7.62622 14.7679L7.52271 14.7045L7.52075 14.7035C7.51976 14.7028 7.5184 14.7017 7.51685 14.7006C7.51374 14.6983 7.5094 14.6947 7.50415 14.6908C7.4936 14.6829 7.47887 14.6718 7.46021 14.6576C7.42228 14.6287 7.36795 14.5865 7.30005 14.5326C7.16431 14.4249 6.97292 14.2683 6.74438 14.0687C6.28821 13.6704 5.67824 13.0958 5.06665 12.391C3.86828 11.0099 2.55018 9.00116 2.55005 6.76697C2.55005 3.77543 4.9755 1.34998 7.96704 1.34998C10.9584 1.35015 13.3831 3.77553 13.3831 6.76697Z" fill="black"/>
<path d="M9.21674 6.7666C9.21674 6.07625 8.65709 5.5166 7.96674 5.5166C7.27638 5.5166 6.71674 6.07625 6.71674 6.7666C6.71674 7.45696 7.27638 8.0166 7.96674 8.0166C8.65709 8.0166 9.21674 7.45696 9.21674 6.7666ZM10.7167 6.7666C10.7167 8.28538 9.48552 9.5166 7.96674 9.5166C6.44795 9.5166 5.21674 8.28538 5.21674 6.7666C5.21674 5.24782 6.44795 4.0166 7.96674 4.0166C9.48552 4.0166 10.7167 5.24782 10.7167 6.7666Z" fill="black"/>
</svg>
