<svg width="16" height="16" viewBox="0 0 16 16" fill="none" xmlns="http://www.w3.org/2000/svg">
<path fill-rule="evenodd" clip-rule="evenodd" d="M7.90659 8.52861C8.67199 7.95058 9.16667 7.03307 9.16667 6.00001C9.16667 4.25111 7.7489 2.83334 6 2.83334C4.2511 2.83334 2.83333 4.25111 2.83333 6.00001C2.83333 7.03307 3.32801 7.95058 4.09341 8.52861C2.58953 9.12771 1.5 10.4179 1.5 12C1.5 12.2762 1.72386 12.5 2 12.5C2.27614 12.5 2.5 12.2762 2.5 12C2.5 10.5167 3.97777 9.16668 6 9.16668C8.02223 9.16668 9.5 10.5167 9.5 12C9.5 12.2762 9.72386 12.5 10 12.5C10.2761 12.5 10.5 12.2762 10.5 12C10.5 10.4179 9.41047 9.12771 7.90659 8.52861ZM3.83333 6.00001C3.83333 4.80339 4.80338 3.83334 6 3.83334C7.19662 3.83334 8.16667 4.80339 8.16667 6.00001C8.16667 7.19663 7.19662 8.16668 6 8.16668C4.80338 8.16668 3.83333 7.19663 3.83333 6.00001Z" fill="black"/>
<path fill-rule="evenodd" clip-rule="evenodd" d="M9.5 7.00001C9.5 5.80339 10.47 4.83334 11.6667 4.83334C12.8633 4.83334 13.8333 5.80339 13.8333 7.00001C13.8333 7.6089 13.5822 8.15913 13.1778 8.55274C13.9566 8.9841 14.5 9.7444 14.5 10.6667C14.5 10.9428 14.2761 11.1667 14 11.1667C13.7238 11.1667 13.5 10.9428 13.5 10.6667C13.5 9.90778 12.7542 9.16668 11.6666 9.16668C11.243 9.16668 10.8587 9.28459 10.5535 9.4766C10.3198 9.62366 10.0111 9.55342 9.86407 9.31969C9.717 9.08597 9.78725 8.77728 10.021 8.63021C10.0645 8.60283 10.1089 8.57653 10.1541 8.55135C9.75058 8.15783 9.5 7.60818 9.5 7.00001ZM11.6667 5.83334C11.0223 5.83334 10.5 6.35568 10.5 7.00001C10.5 7.64434 11.0223 8.16668 11.6667 8.16668C12.311 8.16668 12.8333 7.64434 12.8333 7.00001C12.8333 6.35568 12.311 5.83334 11.6667 5.83334Z" fill="black"/>
</svg>
