<svg width="25" height="25" viewBox="0 0 25 25" fill="none" xmlns="http://www.w3.org/2000/svg">
<path d="M12.5 3.25C12.9142 3.25 13.25 3.58579 13.25 4C13.25 4.41421 12.9142 4.75 12.5 4.75H6C5.30964 4.75 4.75 5.30964 4.75 6V19C4.75 19.6904 5.30964 20.25 6 20.25H19C19.6904 20.25 20.25 19.6904 20.25 19V12.5C20.25 12.0858 20.5858 11.75 21 11.75C21.4142 11.75 21.75 12.0858 21.75 12.5V19C21.75 20.5188 20.5188 21.75 19 21.75H6C4.48122 21.75 3.25 20.5188 3.25 19V6C3.25 4.48122 4.48122 3.25 6 3.25H12.5Z" fill="black"/>
<path d="M19.3789 4.29297C19.7695 3.90276 20.4025 3.90255 20.793 4.29297C21.1833 4.68339 21.1832 5.31651 20.793 5.70703L12.207 14.293C11.8165 14.6834 11.1835 14.6834 10.793 14.293C10.4025 13.9025 10.4025 13.2694 10.793 12.8789L19.3789 4.29297Z" fill="black"/>
</svg>
