<svg width="25" height="25" viewBox="0 0 25 25" fill="none" xmlns="http://www.w3.org/2000/svg">
<path d="M6 11C6.82843 11 7.5 11.6716 7.5 12.5C7.5 13.3284 6.82843 14 6 14C5.17157 14 4.5 13.3284 4.5 12.5C4.5 11.6716 5.17157 11 6 11Z" fill="black"/>
<path d="M12.5 11C13.3284 11 14 11.6716 14 12.5C14 13.3284 13.3284 14 12.5 14C11.6716 14 11 13.3284 11 12.5C11 11.6716 11.6716 11 12.5 11Z" fill="black"/>
<path d="M19 11C19.8284 11 20.5 11.6716 20.5 12.5C20.5 13.3284 19.8284 14 19 14C18.1716 14 17.5 13.3284 17.5 12.5C17.5 11.6716 18.1716 11 19 11Z" fill="black"/>
</svg>
