<svg width="24" height="24" viewBox="0 0 24 24" fill="none" xmlns="http://www.w3.org/2000/svg">
<path d="M11.5195 18.4502C11.9337 18.4502 12.2695 18.786 12.2695 19.2002C12.2694 19.6143 11.9337 19.9502 11.5195 19.9502H3.83984C3.42578 19.9501 3.08998 19.6142 3.08984 19.2002C3.08984 18.786 3.4257 18.4503 3.83984 18.4502H11.5195Z" fill="black"/>
<path d="M16.3203 14.6104C16.7343 14.6106 17.0703 14.9463 17.0703 15.3604C17.0701 15.7742 16.7342 16.1101 16.3203 16.1104H3.83984C3.42582 16.1103 3.09004 15.7743 3.08984 15.3604C3.08984 14.9462 3.4257 14.6104 3.83984 14.6104H16.3203Z" fill="black"/>
<path fill-rule="evenodd" clip-rule="evenodd" d="M19.6797 3.08984C20.359 3.08984 20.9101 3.64106 20.9102 4.32031V11.04C20.91 11.7193 20.3589 12.2695 19.6797 12.2695H4.32031C3.64114 12.2694 3.08995 11.7192 3.08984 11.04V4.32031C3.08991 3.64111 3.64111 3.08993 4.32031 3.08984H19.6797ZM4.58984 10.7695H19.4102V4.58984H4.58984V10.7695Z" fill="black"/>
</svg>
