<svg width="24" height="24" viewBox="0 0 24 24" fill="none" xmlns="http://www.w3.org/2000/svg">
<rect x="2" y="2" width="20" height="20" rx="10" fill="#F93939"/>
<path fill-rule="evenodd" clip-rule="evenodd" d="M16.6694 13.536L15.1201 14.3494L15.4161 12.6254L14.1627 11.4027L15.8961 11.1494L16.6694 9.58136L17.4427 11.1507L19.1761 11.404L17.9227 12.624L18.2187 14.348" fill="white"/>
<path fill-rule="evenodd" clip-rule="evenodd" d="M10.6667 16.6666C13.244 16.6666 15.3333 14.5773 15.3333 12C15.3333 9.42265 13.244 7.33331 10.6667 7.33331C8.08933 7.33331 6 9.42265 6 12C6 14.5773 8.08933 16.6666 10.6667 16.6666ZM12 15.3333C13.84 15.3333 15.3333 13.84 15.3333 12C15.3333 10.16 13.84 8.66665 12 8.66665C10.16 8.66665 8.66667 10.16 8.66667 12C8.66667 13.84 10.16 15.3333 12 15.3333Z" fill="white"/>
</svg>
