<svg width="25" height="25" viewBox="0 0 25 25" fill="none" xmlns="http://www.w3.org/2000/svg">
<path d="M15.9707 14.2168C18.9576 14.2169 20.6881 15.4697 21.6475 16.792C22.1154 17.437 22.3872 18.0792 22.542 18.5596C22.6196 18.8005 22.6688 19.0046 22.6992 19.1514C22.7144 19.2246 22.7244 19.2847 22.7314 19.3281C22.7349 19.3496 22.7383 19.3675 22.7402 19.3809C22.7411 19.3872 22.7416 19.393 22.7422 19.3975C22.7425 19.3996 22.7429 19.4026 22.7432 19.4043V19.4082C22.7927 19.8193 22.4999 20.1924 22.0889 20.2422C21.679 20.2916 21.3064 20.0009 21.2549 19.5918L21.2539 19.5889C21.2534 19.585 21.2527 19.5772 21.251 19.5664C21.2473 19.5435 21.2408 19.5052 21.2305 19.4551C21.2095 19.3541 21.1733 19.2029 21.1143 19.0195C20.9953 18.6505 20.787 18.16 20.4336 17.6729C19.7493 16.7298 18.4651 15.7169 15.9707 15.7168C13.4767 15.7168 12.2092 16.7292 11.54 17.668C11.1939 18.1538 10.993 18.6432 10.8789 19.0117C10.8222 19.1949 10.7872 19.3455 10.7676 19.4463C10.7579 19.496 10.7524 19.5338 10.749 19.5566C10.7477 19.5657 10.7457 19.5729 10.7451 19.5771L10.7461 19.5781C10.7017 19.9899 10.3316 20.2874 9.91991 20.2432C9.50825 20.1988 9.20977 19.8296 9.2539 19.418L9.96386 19.4941C9.31779 19.4245 9.26 19.418 9.25488 19.417V19.4131C9.25509 19.4115 9.25561 19.4093 9.25585 19.4072C9.25637 19.4028 9.25699 19.397 9.25781 19.3906C9.25951 19.3772 9.26144 19.3585 9.26464 19.3369C9.2711 19.2934 9.28166 19.2334 9.29589 19.1602C9.32444 19.0132 9.37072 18.8094 9.44531 18.5684C9.59415 18.0874 9.85753 17.4435 10.3184 16.7969C11.264 15.4702 12.9831 14.2168 15.9707 14.2168Z" fill="black"/>
<path d="M8.24999 14.5C9.18747 14.5 9.99036 14.6311 10.6777 14.8477C10.1955 15.2294 9.7913 15.6543 9.45312 16.0938C9.09168 16.0342 8.69212 16 8.24999 16C5.9631 16 4.81238 16.8907 4.21093 17.6982C3.8984 18.1179 3.71614 18.5396 3.61327 18.8564C3.56211 19.014 3.53212 19.1431 3.51464 19.2285C3.50592 19.2711 3.49996 19.3028 3.49706 19.3213C3.49564 19.3304 3.49544 19.3364 3.49511 19.3389V19.3359L3.49413 19.335C3.44699 19.7463 3.07638 20.042 2.66503 19.9951C2.25367 19.948 1.95797 19.5764 2.00488 19.165L2.74999 19.25C2.03946 19.1686 2.00635 19.1657 2.00488 19.165V19.1631L2.00585 19.1602C2.00605 19.1585 2.00559 19.1564 2.00585 19.1543C2.00639 19.15 2.00698 19.1448 2.00781 19.1387C2.00951 19.126 2.01248 19.1089 2.01562 19.0889C2.02189 19.0488 2.03128 18.9944 2.04491 18.9277C2.07219 18.7944 2.11693 18.6109 2.18749 18.3936C2.3281 17.9604 2.57563 17.382 3.00781 16.8018C3.89596 15.6094 5.49538 14.5 8.24999 14.5Z" fill="black"/>
<path fill-rule="evenodd" clip-rule="evenodd" d="M7.51269 7.2373C8.42924 7.23749 9.16722 7.62124 9.65429 8.26367C10.1221 8.88093 10.3184 9.67977 10.3184 10.4795C10.3182 11.2791 10.1221 12.0772 9.65429 12.6943C9.16722 13.3368 8.42926 13.7205 7.51269 13.7207C6.58964 13.7207 5.86908 13.3299 5.40917 12.6699C4.97599 12.0478 4.81844 11.2536 4.81835 10.4795C4.81835 9.70513 4.97587 8.91036 5.40917 8.28809C5.86908 7.62793 6.58953 7.2373 7.51269 7.2373ZM7.51269 8.7373C7.05992 8.7373 6.80772 8.90416 6.63964 9.14551C6.44497 9.42508 6.31835 9.87768 6.31835 10.4795C6.31844 11.0809 6.44505 11.533 6.63964 11.8125C6.80772 12.0537 7.06009 12.2207 7.51269 12.2207C7.97162 12.2205 8.26254 12.0472 8.45898 11.7881C8.67457 11.5037 8.81824 11.0554 8.81835 10.4795C8.81835 9.90342 8.67455 9.45448 8.45898 9.16992C8.26254 8.91083 7.97161 8.73747 7.51269 8.7373Z" fill="black"/>
<path fill-rule="evenodd" clip-rule="evenodd" d="M15.9707 4.0498C17.294 4.04992 18.3868 4.598 19.1357 5.49219C19.8739 6.37362 20.2489 7.553 20.249 8.79883C20.249 10.045 19.8736 11.2197 19.1338 12.0957C18.3832 12.9841 17.2903 13.5233 15.9707 13.5234C14.649 13.5234 13.568 12.9824 12.831 12.0889C12.1066 11.2104 11.75 10.0371 11.75 8.79883C11.7501 7.56098 12.1065 6.38284 12.8291 5.49902C13.5643 4.59997 14.6455 4.0498 15.9707 4.0498ZM15.9707 5.5498C15.0945 5.5498 14.4398 5.89855 13.9902 6.44824C13.5282 7.01342 13.2501 7.83532 13.25 8.79883C13.25 9.76231 13.528 10.5766 13.9883 11.1348C14.4362 11.6778 15.0905 12.0234 15.9707 12.0234C16.8526 12.0233 17.5252 11.676 17.9883 11.1279C18.4616 10.5674 18.749 9.75394 18.749 8.79883C18.7489 7.84337 18.4607 7.02263 17.9853 6.45508C17.5206 5.90041 16.8487 5.54991 15.9707 5.5498Z" fill="black"/>
</svg>
