<svg width="24" height="24" viewBox="0 0 24 24" fill="none" xmlns="http://www.w3.org/2000/svg">
<g clip-path="url(#clip0_1757_6410)">
<rect x="2" y="2" width="20" height="20" rx="10" fill="white"/>
<path fill-rule="evenodd" clip-rule="evenodd" d="M-2 15.3333H26V22H-2V15.3333Z" fill="#1A47B8"/>
<path fill-rule="evenodd" clip-rule="evenodd" d="M-2 2H26V8.66667H-2V2Z" fill="#F93939"/>
<path fill-rule="evenodd" clip-rule="evenodd" d="M8.66667 7.33333H10V8.66667H8.66667V7.33333ZM11.3333 6H12.6667V8.66667H11.3333V6ZM14 7.33333H15.3333V8.66667H14V7.33333Z" fill="#3A99FF"/>
<path fill-rule="evenodd" clip-rule="evenodd" d="M12.6667 6H14V8.66667H12.6667V6ZM10 6H11.3333V8.66667H10V6Z" fill="#1A47B8"/>
<mask id="mask0_1757_6410" style="mask-type:alpha" maskUnits="userSpaceOnUse" x="8" y="8" width="8" height="9">
<path d="M15.3333 13.3334C15.3333 15.1734 13.84 16.6667 12 16.6667C10.16 16.6667 8.66667 15.1734 8.66667 13.3334V8.66669H15.3333V13.3334Z" fill="white"/>
</mask>
<g mask="url(#mask0_1757_6410)">
<path d="M15.3333 13.3334C15.3333 15.1734 13.84 16.6667 12 16.6667C10.16 16.6667 8.66667 15.1734 8.66667 13.3334V8.66669H15.3333V13.3334Z" fill="#F93939"/>
<path fill-rule="evenodd" clip-rule="evenodd" d="M10 15.3334H11.3333V16.6667H10V15.3334ZM12.6667 15.3334H14V16.6667H12.6667V15.3334ZM11.3333 14H12.6667V15.3334H11.3333V14ZM10 12.6667H11.3333V14H10V12.6667ZM12.6667 12.6667H14V14H12.6667V12.6667ZM11.3333 11.3334H12.6667V12.6667H11.3333V11.3334ZM10 10H11.3333V11.3334H10V10ZM12.6667 10H14V11.3334H12.6667V10ZM11.3333 8.66669H12.6667V10H11.3333V8.66669ZM14 8.66669H15.3333V10H14V8.66669ZM14 11.3334H15.3333V12.6667H14V11.3334ZM14 14H15.3333V15.3334H14V14ZM8.66667 14H10V15.3334H8.66667V14ZM8.66667 11.3334H10V12.6667H8.66667V11.3334ZM8.66667 8.66669H10V10H8.66667V8.66669Z" fill="white"/>
</g>
</g>
<defs>
<clipPath id="clip0_1757_6410">
<rect x="2" y="2" width="20" height="20" rx="10" fill="white"/>
</clipPath>
</defs>
</svg>
