<svg width="16" height="16" viewBox="0 0 16 16" fill="none" xmlns="http://www.w3.org/2000/svg">
<path fill-rule="evenodd" clip-rule="evenodd" d="M8.00004 4.16667C6.61933 4.16667 5.50004 5.28595 5.50004 6.66667C5.50004 8.04738 6.61933 9.16667 8.00004 9.16667C9.38075 9.16667 10.5 8.04738 10.5 6.66667C10.5 5.28595 9.38075 4.16667 8.00004 4.16667ZM6.50004 6.66667C6.50004 5.83824 7.17161 5.16667 8.00004 5.16667C8.82847 5.16667 9.50004 5.83824 9.50004 6.66667C9.50004 7.49509 8.82847 8.16667 8.00004 8.16667C7.17161 8.16667 6.50004 7.49509 6.50004 6.66667Z" fill="black"/>
<path fill-rule="evenodd" clip-rule="evenodd" d="M7.70262 14.4019L7.70406 14.403C7.88007 14.5321 8.11974 14.5323 8.29575 14.4032L7.73568 14.403C7.85837 14.403 8.29639 14.4027 8.29639 14.4027L8.29746 14.4019L8.30086 14.3994L8.31264 14.3906C8.32267 14.3832 8.33699 14.3724 8.35533 14.3584C8.39201 14.3305 8.44476 14.2898 8.5113 14.237C8.64433 14.1315 8.83273 13.9775 9.05805 13.7807C9.50801 13.3879 10.1088 12.8215 10.711 12.1275C11.8989 10.7586 13.1667 8.80811 13.1667 6.66667C13.1667 3.8132 10.8535 1.5 8.00004 1.5C5.14657 1.5 2.83337 3.8132 2.83337 6.66667C2.83337 8.80811 4.10117 10.7586 5.28906 12.1275C5.89126 12.8215 6.49207 13.3879 6.94203 13.7807C7.16735 13.9775 7.35575 14.1315 7.48878 14.237C7.55532 14.2898 7.60807 14.3305 7.64475 14.3584C7.66309 14.3724 7.67741 14.3832 7.68744 14.3906L7.69922 14.3994L7.70262 14.4019ZM3.83337 6.66667C3.83337 4.36548 5.69885 2.5 8.00004 2.5C10.3012 2.5 12.1667 4.36548 12.1667 6.66667C12.1667 8.43589 11.1012 10.1521 9.95573 11.4721C9.39126 12.1226 8.82541 12.6564 8.40036 13.0275C8.24538 13.1628 8.1096 13.2761 8.00004 13.3651C7.89048 13.2761 7.7547 13.1628 7.59972 13.0275C7.17467 12.6564 6.60882 12.1226 6.04435 11.4721C4.89891 10.1521 3.83337 8.43589 3.83337 6.66667Z" fill="black"/>
</svg>
