<svg width="24" height="24" viewBox="0 0 24 24" fill="none" xmlns="http://www.w3.org/2000/svg">
<rect x="2" y="5" width="20" height="14" rx="3" fill="white"/>
<rect x="1.5" y="4.5" width="21" height="15" rx="3.5" stroke="black" stroke-opacity="0.07"/>
<path fill-rule="evenodd" clip-rule="evenodd" d="M15.3334 12C15.3334 13.8041 13.841 15.2667 12 15.2667C10.1591 15.2667 8.66669 13.8041 8.66669 12C8.66669 10.9547 10.9048 10.516 12.7886 10.6812C12.9886 10.6289 13.2038 10.6 13.4286 10.6C14.481 10.6 15.3334 11.2272 15.3334 12Z" fill="#232C80"/>
<path fill-rule="evenodd" clip-rule="evenodd" d="M11.5238 11.5333C11.5238 11.5333 12.3762 10.6 13.4286 10.6C14.481 10.6 15.3334 11.2272 15.3334 12C15.3334 10.1959 13.841 8.73334 12 8.73334C10.6695 8.73334 9.52097 9.4968 8.98669 10.6019C8.66669 11.5333 8.66669 11.8059 8.66669 12C9.14288 12.4667 9.6724 12.4667 10.0953 12.4667C10.5181 12.4667 10.8981 12.2865 11.16 12L11.5238 11.5333Z" fill="#F93939"/>
<path fill-rule="evenodd" clip-rule="evenodd" d="M16.2857 9.66665H18.1905L16.2857 7.79999H15.3333L16.2857 9.66665ZM7.71427 9.66665H5.80951L7.71427 7.79999H8.66665L7.71427 9.66665ZM16.2857 14.3333H18.1905L16.2857 16.2H15.3333L16.2857 14.3333ZM7.71427 14.3333H5.80951L7.71427 16.2H8.66665L7.71427 14.3333Z" fill="#151515"/>
</svg>
