<svg width="32" height="32" viewBox="0 0 32 32" fill="none" xmlns="http://www.w3.org/2000/svg">
<path opacity="0.2" d="M17.7016 21.5783L8.54748 12.4241L6.03955 18.7717L10.9033 23.7954L17.7016 21.5783Z" fill="#008194"/>
<path fill-rule="evenodd" clip-rule="evenodd" d="M11.1999 7.41593C11.167 7.40633 11.1322 7.40519 11.0988 7.41261C11.0653 7.42003 11.0343 7.43578 11.0086 7.45839C10.9828 7.481 10.9632 7.50975 10.9516 7.54196L10.9512 7.54302L4.52407 25.2148C4.51077 25.2512 4.50815 25.2907 4.51652 25.3285C4.52488 25.3664 4.54389 25.401 4.5713 25.4284C4.59871 25.4558 4.63338 25.4749 4.67123 25.4832C4.70908 25.4916 4.74853 25.489 4.78494 25.4757L22.4578 19.0482C22.49 19.0365 22.5187 19.0169 22.5413 18.9913C22.5639 18.9656 22.5796 18.9346 22.5871 18.9012C22.5945 18.8678 22.5934 18.833 22.5839 18.8001C22.5744 18.7674 22.5568 18.7376 22.5328 18.7134L11.2875 7.46819C11.2633 7.44394 11.2327 7.42553 11.1999 7.41593ZM10.7737 5.94825C11.0538 5.88609 11.3449 5.89566 11.6203 5.97606C11.8955 6.05642 12.146 6.20493 12.3485 6.40784L23.5934 17.6528C23.796 17.8556 23.9444 18.1065 24.0243 18.3817C24.1043 18.6569 24.1135 18.9478 24.0511 19.2275C23.9888 19.5072 23.8569 19.7667 23.6676 19.9819C23.4783 20.1971 23.2378 20.3611 22.9683 20.4586L5.29963 26.8846C4.99489 26.9958 4.66419 27.0179 4.34743 26.9479C4.03049 26.8778 3.74017 26.7186 3.51064 26.4891C3.28111 26.2596 3.12195 25.9692 3.05188 25.6523C2.98186 25.3356 3.00373 25.0054 3.11492 24.7007L9.54112 7.03139C9.63878 6.76188 9.80307 6.52084 10.0184 6.33162C10.2339 6.14227 10.4937 6.01041 10.7737 5.94825Z" fill="#008194"/>
<path d="M25.6042 4.54519C25.3761 5.00133 25.0222 5.48029 24.4774 5.84354C23.9278 6.20992 23.2287 6.42847 22.3632 6.42847C21.7601 6.42847 21.3576 6.57709 21.081 6.76147C20.7997 6.94898 20.6029 7.20437 20.4638 7.48257C20.3232 7.7637 20.2492 8.05392 20.2115 8.28018C20.1533 8.6295 20.1133 9.36584 19.4258 9.36584C19.0116 9.36584 18.6758 9.03006 18.6758 8.61584C18.6764 7.99785 18.8475 7.36097 19.1221 6.81175C19.3502 6.3556 19.7041 5.87664 20.249 5.5134C20.7985 5.14702 21.4976 4.92847 22.3632 4.92847C22.9663 4.92847 23.3687 4.77985 23.6453 4.59547C23.9266 4.40795 24.1234 4.15257 24.2625 3.87437C24.4031 3.59323 24.4771 3.30302 24.5148 3.07676C24.5334 2.96541 24.5424 2.87425 24.5467 2.81387C24.5652 2.55457 24.7891 2.01176 25.3005 1.99109C25.812 1.97043 26.0494 2.25047 26.0494 2.79907C26.0494 3.39317 25.8688 4.01597 25.6042 4.54519Z" fill="#008194"/>
<path fill-rule="evenodd" clip-rule="evenodd" d="M16.4883 1.01196C16.9025 1.01196 17.2383 1.34775 17.2383 1.76196V4.69934C17.2383 5.11355 16.9025 5.44934 16.4883 5.44934C16.0741 5.44934 15.7383 5.11355 15.7383 4.69934V1.76196C15.7383 1.34775 16.0741 1.01196 16.4883 1.01196Z" fill="#008194"/>
<path fill-rule="evenodd" clip-rule="evenodd" d="M24.7705 12.9811C25.0633 12.6883 25.5382 12.6883 25.8311 12.9811L27.7894 14.9394C28.0823 15.2323 28.0823 15.7072 27.7894 16.0001C27.4965 16.293 27.0216 16.293 26.7287 16.0001L24.7705 14.0418C24.4776 13.7489 24.4776 13.274 24.7705 12.9811Z" fill="#008194"/>
<path fill-rule="evenodd" clip-rule="evenodd" d="M28.9497 8.37867C29.0807 8.77163 28.8683 9.19637 28.4753 9.32736L25.538 10.3065C25.145 10.4375 24.7203 10.2251 24.5893 9.83214C24.4583 9.43918 24.6707 9.01444 25.0636 8.88346L28.001 7.90433C28.3939 7.77335 28.8187 7.98572 28.9497 8.37867Z" fill="#008194"/>
<path fill-rule="evenodd" clip-rule="evenodd" d="M7.89155 11.7683C8.18444 11.4754 8.65931 11.4754 8.95221 11.7683L18.2319 21.0479C18.5248 21.3408 18.5248 21.8157 18.2319 22.1086C17.939 22.4015 17.4641 22.4015 17.1712 22.1086L7.89155 12.8289C7.59865 12.536 7.59865 12.0611 7.89155 11.7683Z" fill="#008194"/>
<path fill-rule="evenodd" clip-rule="evenodd" d="M5.54194 18.2305C5.83483 17.9376 6.3097 17.9376 6.6026 18.2305L11.7699 23.3978C12.0628 23.6907 12.0628 24.1656 11.7699 24.4585C11.477 24.7514 11.0022 24.7514 10.7093 24.4585L5.54194 19.2911C5.24904 18.9982 5.24904 18.5234 5.54194 18.2305Z" fill="#008194"/>
</svg>
