<svg width="20" height="17" viewBox="0 0 20 17" fill="none" xmlns="http://www.w3.org/2000/svg">
<path fill-rule="evenodd" clip-rule="evenodd" d="M13.2956 0C14.3224 0 15.1814 0.710949 15.4119 1.66699H17.2253C18.5056 1.66736 19.7677 2.76666 19.3777 4.25195C19.0472 5.51058 18.4278 6.85339 17.6638 7.89648C17.2814 8.41861 16.845 8.88907 16.3689 9.23535C15.8955 9.5796 15.3361 9.83381 14.7253 9.83398H13.7712C12.8997 10.6975 11.7537 11.2825 10.4753 11.4492V15H13.0583L13.1345 15.0039C13.5128 15.0423 13.8083 15.3616 13.8083 15.75C13.8083 16.1384 13.5128 16.4577 13.1345 16.4961L13.0583 16.5H6.39135C5.97713 16.5 5.64135 16.1642 5.64135 15.75C5.64135 15.3358 5.97713 15 6.39135 15H8.97533V11.4492C7.69659 11.2827 6.55019 10.6977 5.67846 9.83398H4.72436C4.11351 9.83389 3.55424 9.57958 3.0808 9.23535C2.60471 8.88911 2.16829 8.41855 1.78588 7.89648C1.02194 6.85342 0.402532 5.51055 0.0720115 4.25195C-0.317996 2.76653 0.943943 1.66718 2.22436 1.66699H4.03783C4.26824 0.711094 5.12651 0.000188679 6.15307 0H13.2956ZM6.15307 1.5C5.77849 1.50022 5.47436 1.80408 5.47436 2.17871V5.75C5.47436 6.72232 5.80195 7.61786 6.35131 8.33398H6.39135V8.38477C7.16969 9.36816 8.37286 9.99987 9.72436 10C11.0761 10 12.2799 9.3683 13.0583 8.38477V8.33398H13.0984C13.6477 7.61787 13.9744 6.72228 13.9744 5.75V2.17871C13.9744 1.80395 13.6704 1.5 13.2956 1.5H6.15307ZM2.22436 3.16699C1.96652 3.16708 1.75688 3.27296 1.63451 3.4082C1.52141 3.53338 1.47402 3.68758 1.52221 3.87109C1.80841 4.96094 2.35187 6.1292 2.99682 7.00977C3.31872 7.44922 3.64876 7.79415 3.96264 8.02246C4.2047 8.19845 4.41125 8.28626 4.57982 8.31836C4.19314 7.54525 3.97436 6.67323 3.97436 5.75V3.16699H2.22436ZM15.4744 5.75C15.4744 6.67336 15.2557 7.54517 14.8689 8.31836C15.0376 8.28634 15.2446 8.19874 15.4871 8.02246C15.801 7.79412 16.1309 7.44928 16.4529 7.00977C17.0978 6.12918 17.6413 4.96097 17.9275 3.87109C17.9756 3.68768 17.9282 3.53335 17.8152 3.4082C17.6929 3.27302 17.483 3.16717 17.2253 3.16699H15.4744V5.75Z" fill="black"/>
</svg>
