<svg width="25" height="25" viewBox="0 0 25 25" fill="none" xmlns="http://www.w3.org/2000/svg">
<path d="M12 19.25C12.4142 19.25 12.75 19.5858 12.75 20C12.75 20.4142 12.4142 20.75 12 20.75H4C3.58579 20.75 3.25 20.4142 3.25 20C3.25 19.5858 3.58579 19.25 4 19.25H12Z" fill="black"/>
<path d="M17 15.25C17.4142 15.25 17.75 15.5858 17.75 16C17.75 16.4142 17.4142 16.75 17 16.75H4C3.58579 16.75 3.25 16.4142 3.25 16C3.25 15.5858 3.58579 15.25 4 15.25H17Z" fill="black"/>
<path fill-rule="evenodd" clip-rule="evenodd" d="M20.5 3.25C21.1904 3.25 21.75 3.80964 21.75 4.5V11.5C21.75 12.1904 21.1904 12.75 20.5 12.75H4.5C3.80965 12.75 3.25 12.1904 3.25 11.5V4.5C3.25 3.80964 3.80964 3.25 4.5 3.25H20.5ZM4.75 11.25H20.25V4.75H4.75V11.25Z" fill="black"/>
</svg>
