<svg width="24" height="24" viewBox="0 0 24 24" fill="none" xmlns="http://www.w3.org/2000/svg">
<g clip-path="url(#clip0_1757_6404)">
<rect x="2" y="2" width="20" height="20" rx="10" fill="white"/>
<path fill-rule="evenodd" clip-rule="evenodd" d="M2 2H7.33333V7.33333H2V2ZM10 2H15.3333V7.33333H10V2ZM2 10H7.33333V15.3333H2V10ZM10 10H15.3333V15.3333H10V10ZM15.3333 2H30V4.66667H15.3333V2ZM15.3333 7.33333H30V10H15.3333V7.33333Z" fill="#1A47B8"/>
<path fill-rule="evenodd" clip-rule="evenodd" d="M2 12.6667H30V15.3334H2V12.6667ZM7.33333 12.6667H10V15.3334H7.33333V12.6667ZM2 18H30V20.6667H2V18Z" fill="#1A47B8"/>
</g>
<defs>
<clipPath id="clip0_1757_6404">
<rect x="2" y="2" width="20" height="20" rx="10" fill="white"/>
</clipPath>
</defs>
</svg>
