<svg width="24" height="24" viewBox="0 0 24 24" fill="none" xmlns="http://www.w3.org/2000/svg">
<g clip-path="url(#clip0_1768_6122)">
<rect x="2" y="5" width="20" height="14" rx="3" fill="#F93939"/>
<path d="M20.0952 5H3.90476C2.85279 5 2 5.83574 2 6.86667V17.1333C2 18.1643 2.85279 19 3.90476 19H20.0952C21.1472 19 22 18.1643 22 17.1333V6.86667C22 5.83574 21.1472 5 20.0952 5Z" fill="#F93939"/>
<path fill-rule="evenodd" clip-rule="evenodd" d="M7.2363 11.748L5.8363 12.4695L6.10297 10.9416L4.97154 9.85892L6.5363 9.63772L7.2363 8.24705L7.93535 9.63772L9.50011 9.85892L8.36678 10.9416L8.63535 12.4685L7.2363 11.748ZM10.5715 7.79999H11.5239V8.73332H10.5715V7.79999ZM11.5239 9.66665H12.4763V10.6H11.5239V9.66665ZM11.5239 11.5333H12.4763V12.4667H11.5239V11.5333ZM10.5715 13.4H11.5239V14.3333H10.5715V13.4Z" fill="#FFDA2C"/>
</g>
<defs>
<clipPath id="clip0_1768_6122">
<rect x="2" y="5" width="20" height="14" rx="3" fill="white"/>
</clipPath>
</defs>
</svg>
