<svg width="24" height="24" viewBox="0 0 24 24" fill="none" xmlns="http://www.w3.org/2000/svg">
<path d="M18 15.25C18.4142 15.25 18.75 15.5858 18.75 16C18.75 16.4142 18.4142 16.75 18 16.75H6C5.58579 16.75 5.25 16.4142 5.25 16C5.25 15.5858 5.58579 15.25 6 15.25H18Z" fill="black"/>
<path d="M21.1201 10.7695C21.5341 10.7697 21.8699 11.1056 21.8701 11.5195C21.8701 11.9337 21.5342 12.2694 21.1201 12.2695L2.87988 12.2705C2.46589 12.2704 2.13015 11.9345 2.12988 11.5205C2.12988 11.1063 2.46573 10.7706 2.87988 10.7705L21.1201 10.7695Z" fill="black"/>
<path d="M18 6.25C18.4142 6.25 18.75 6.58579 18.75 7C18.75 7.41421 18.4142 7.75 18 7.75H6C5.58579 7.75 5.25 7.41421 5.25 7C5.25 6.58579 5.58579 6.25 6 6.25H18Z" fill="black"/>
</svg>
