<svg width="25" height="25" viewBox="0 0 25 25" fill="none" xmlns="http://www.w3.org/2000/svg">
<path d="M20.5095 14.6461C20.8465 14.4055 21.3147 14.4839 21.5554 14.8209C21.7957 15.1578 21.7182 15.626 21.3815 15.8668L13.0534 21.815C12.7059 22.0629 12.2388 22.063 11.8913 21.815L3.56417 15.8668C3.22718 15.626 3.14968 15.1579 3.39034 14.8209C3.63111 14.4839 4.09922 14.4054 4.43624 14.6461L12.4733 20.3863L20.5095 14.6461Z" fill="black"/>
<path fill-rule="evenodd" clip-rule="evenodd" d="M12.0271 2.61676C12.3541 2.45383 12.7502 2.48052 13.0544 2.69782L21.0964 8.44293L21.194 8.52203C21.6522 8.94314 21.6196 9.69584 21.0964 10.0699L13.0534 15.815C12.7059 16.0629 12.2388 16.063 11.8913 15.815L3.84932 10.0699C3.29134 9.67105 3.29134 8.84176 3.84932 8.44293L11.8913 2.69879L12.0271 2.61676ZM5.29073 9.25641L12.4733 14.3863L19.655 9.25543L12.4724 4.12555L5.29073 9.25641Z" fill="black"/>
</svg>
