<svg width="24" height="24" viewBox="0 0 24 24" fill="none" xmlns="http://www.w3.org/2000/svg">
<g clip-path="url(#clip0_1768_6096)">
<rect x="2" y="5" width="20" height="14" rx="3" fill="#1A47B8"/>
<path fill-rule="evenodd" clip-rule="evenodd" d="M2 14.3333H22V19H2V14.3333Z" fill="#F93939"/>
<path fill-rule="evenodd" clip-rule="evenodd" d="M2 5H22V9.66667H2V5ZM11.4571 14.3333H11.5238V9.66667H4.85714V14.3333H4.92381C4.88 14.4845 4.85714 14.6413 4.85714 14.8C4.85714 16.088 8.19048 17.1333 8.19048 17.1333C8.19048 17.1333 11.5238 16.088 11.5238 14.8C11.5238 14.6413 11.501 14.4845 11.4571 14.3333Z" fill="white"/>
<path fill-rule="evenodd" clip-rule="evenodd" d="M10.5715 14.3333V8.73334H5.80957V14.3333C5.80957 15.3647 8.19052 16.2 8.19052 16.2C8.19052 16.2 10.5715 15.3647 10.5715 14.3333Z" fill="#F93939"/>
<path fill-rule="evenodd" clip-rule="evenodd" d="M7.71434 12.4667V11.5333H6.76196V10.6H7.71434V9.66666H8.66672V10.6H9.6191V11.5333H8.66672V12.4667H10.0953V13.4H8.66672V14.3333H7.71434V13.4H6.28577V12.4667H7.71434Z" fill="white"/>
<path fill-rule="evenodd" clip-rule="evenodd" d="M8.19052 16.2C8.19052 16.2 10.5715 15.3647 10.5715 14.3333C10.5715 13.302 9.61909 13.4 8.19052 14.3333C6.76195 13.4 5.80957 13.302 5.80957 14.3333C5.80957 15.3647 8.19052 16.2 8.19052 16.2Z" fill="#1A47B8"/>
</g>
<defs>
<clipPath id="clip0_1768_6096">
<rect x="2" y="5" width="20" height="14" rx="3" fill="white"/>
</clipPath>
</defs>
</svg>
