<svg width="25" height="25" viewBox="0 0 25 25" fill="none" xmlns="http://www.w3.org/2000/svg">
<path d="M15.8564 8.52148C16.0326 8.46863 16.2234 8.51642 16.3535 8.64648C16.4836 8.77655 16.5314 8.96737 16.4785 9.14355L13.7793 18.1436C13.7199 18.3417 13.5442 18.4834 13.3379 18.499C13.1315 18.5146 12.9362 18.4009 12.8477 18.2139L10.8994 14.0996L6.78613 12.1523C6.59912 12.0638 6.48538 11.8685 6.50098 11.6621C6.51664 11.4558 6.65829 11.2801 6.85645 11.2207L15.8564 8.52148Z" fill="black"/>
<path fill-rule="evenodd" clip-rule="evenodd" d="M12.5 2.25C18.1609 2.25 22.75 6.83908 22.75 12.5C22.75 18.1609 18.1609 22.75 12.5 22.75C6.83908 22.75 2.25 18.1609 2.25 12.5C2.25 6.83908 6.83908 2.25 12.5 2.25ZM12.5 3.75C7.66751 3.75 3.75 7.66751 3.75 12.5C3.75 17.3325 7.66751 21.25 12.5 21.25C17.3325 21.25 21.25 17.3325 21.25 12.5C21.25 7.66751 17.3325 3.75 12.5 3.75Z" fill="black"/>
</svg>
