<svg width="24" height="24" viewBox="0 0 24 24" fill="none" xmlns="http://www.w3.org/2000/svg">
<g clip-path="url(#clip0_1757_6387)">
<rect x="2" y="2" width="20" height="20" rx="10" fill="#1A47B8"/>
<path fill-rule="evenodd" clip-rule="evenodd" d="M2 15.3333H30V22H2V15.3333Z" fill="#F93939"/>
<path fill-rule="evenodd" clip-rule="evenodd" d="M2 2H30V8.66667H2V2Z" fill="white"/>
<path d="M10.6666 6H7.99996C7.26358 6 6.66663 6.59695 6.66663 7.33333V10.6667C6.66663 11.403 7.26358 12 7.99996 12H10.6666C11.403 12 12 11.403 12 10.6667V7.33333C12 6.59695 11.403 6 10.6666 6Z" fill="#F93939"/>
<path d="M10 6H8.66671C7.93033 6 7.33337 6.59695 7.33337 7.33333V10C7.33337 10.7364 7.93033 11.3333 8.66671 11.3333H10C10.7364 11.3333 11.3334 10.7364 11.3334 10V7.33333C11.3334 6.59695 10.7364 6 10 6Z" fill="#1A47B8"/>
<path fill-rule="evenodd" clip-rule="evenodd" d="M8.66663 7.33331H9.99996V8.66665H8.66663V7.33331Z" fill="#FFDA2C"/>
<path fill-rule="evenodd" clip-rule="evenodd" d="M7.33337 9.99998L9.33337 9.33331L11.3334 9.99998L10 11.3333H8.66671L7.33337 9.99998Z" fill="white"/>
</g>
<defs>
<clipPath id="clip0_1757_6387">
<rect x="2" y="2" width="20" height="20" rx="10" fill="white"/>
</clipPath>
</defs>
</svg>
