<svg width="24" height="24" viewBox="0 0 24 24" fill="none" xmlns="http://www.w3.org/2000/svg">
<path fill-rule="evenodd" clip-rule="evenodd" d="M10 11.25C10.6904 11.25 11.25 11.8096 11.25 12.5V19.5C11.25 20.1904 10.6904 20.75 10 20.75H4.5C3.80964 20.75 3.25 20.1904 3.25 19.5V12.5C3.25 11.8096 3.80964 11.25 4.5 11.25H10ZM4.75 19.25H9.75V12.75H4.75V19.25Z" fill="black"/>
<path fill-rule="evenodd" clip-rule="evenodd" d="M19.5 14.25C20.1904 14.25 20.75 14.8096 20.75 15.5V19.5C20.75 20.1904 20.1904 20.75 19.5 20.75H14C13.3096 20.75 12.75 20.1904 12.75 19.5V15.5C12.75 14.8096 13.3096 14.25 14 14.25H19.5ZM14.25 19.25H19.25V15.75H14.25V19.25Z" fill="black"/>
<path fill-rule="evenodd" clip-rule="evenodd" d="M19.5 3.25C20.1904 3.25 20.75 3.80964 20.75 4.5V11.5C20.75 12.1904 20.1904 12.75 19.5 12.75H14C13.3096 12.75 12.75 12.1904 12.75 11.5V4.5C12.75 3.80964 13.3096 3.25 14 3.25H19.5ZM14.25 11.25H19.25V4.75H14.25V11.25Z" fill="black"/>
<path fill-rule="evenodd" clip-rule="evenodd" d="M10 3.25C10.6904 3.25 11.25 3.80964 11.25 4.5V8.5C11.25 9.19036 10.6904 9.75 10 9.75H4.5C3.80964 9.75 3.25 9.19036 3.25 8.5V4.5C3.25 3.80964 3.80964 3.25 4.5 3.25H10ZM4.75 8.25H9.75V4.75H4.75V8.25Z" fill="black"/>
</svg>
