<svg width="24" height="24" viewBox="0 0 24 24" fill="none" xmlns="http://www.w3.org/2000/svg">
<path d="M15.2999 13.5C16.1535 13.5 16.9986 13.6555 17.7872 13.957C18.5759 14.2586 19.293 14.7007 19.8966 15.2578C20.5 15.8149 20.9782 16.4763 21.3048 17.2041C21.5623 17.7778 21.7217 18.3841 21.7775 19.001C21.8022 19.2759 21.576 19.5 21.2999 19.5H9.29994C9.02393 19.5 8.79772 19.2758 8.8224 19.001C8.8782 18.3842 9.03762 17.7778 9.29505 17.2041C9.62171 16.4761 10.1007 15.815 10.7042 15.2578C11.3078 14.7007 12.024 14.2586 12.8126 13.957C13.6012 13.6555 14.4464 13.5 15.2999 13.5Z" fill="black"/>
<path d="M8.66908 14C9.26133 14 9.80376 14.0446 10.2999 14.123C7.84416 16.1132 7.54107 19.2913 7.54017 19.3008H2.79115C2.56271 19.3008 2.3446 19.2123 2.19251 19.0586C1.97072 18.8343 1.97468 18.5423 2.03724 18.2666C2.0664 18.1382 2.11329 17.9611 2.18861 17.752C2.3389 17.3346 2.60467 16.7779 3.06654 16.2188C4.01579 15.0696 5.72494 14 8.66908 14Z" fill="black"/>
<path d="M7.21107 6.91797C8.10035 6.91797 8.81763 7.29057 9.29115 7.91504C9.74545 8.5143 9.9347 9.28822 9.9347 10.0605C9.93456 10.8326 9.74531 11.606 9.29115 12.2051C8.81763 12.8293 8.10016 13.2021 7.21107 13.2021C6.31545 13.202 5.61438 12.822 5.16712 12.1797C4.74668 11.5757 4.59497 10.807 4.59486 10.0605C4.59486 9.31399 4.74674 8.54456 5.16712 7.94043C5.61438 7.29812 6.31542 6.9181 7.21107 6.91797Z" fill="black"/>
<path d="M15.3322 3.8584C16.6113 3.85859 17.6691 4.38875 18.3937 5.25391C19.1075 6.10644 19.4699 7.24647 19.4699 8.44824C19.4697 9.65015 19.1073 10.7847 18.3917 11.6318C17.6655 12.4914 16.6076 13.0125 15.3322 13.0127C14.0547 13.0127 13.0083 12.4895 12.2951 11.625C11.5944 10.7754 11.2503 9.64228 11.2501 8.44824C11.2501 7.25419 11.5941 6.11573 12.2931 5.26074C13.0046 4.39055 14.0509 3.8584 15.3322 3.8584Z" fill="black"/>
</svg>
